<svg width="64" height="64" viewBox="0 0 64 64" fill="none" xmlns="http://www.w3.org/2000/svg">
<g clip-path="url(#clip0)">
<path d="M31.9995 1.14261C25.7839 1.13373 19.712 3.01133 14.5862 6.52701C14.6065 8.06849 13.8497 9.51659 12.5728 10.3802C11.7858 10.8651 11.0308 11.4001 10.3125 11.9819C9.62768 12.7225 8.89669 13.419 8.12396 14.0671C7.76834 14.3713 7.24697 14.3803 6.88098 14.0886C-1.38275 25.6838 -0.637764 41.4284 8.68382 52.1915C18.0054 62.9545 33.4821 65.9404 46.1387 59.4172C58.7952 52.8941 65.3437 38.5567 61.9864 24.7196C58.6291 10.8823 46.2382 1.14011 31.9995 1.14261Z" fill="#A4C2F7"/>
<path d="M28.5711 1.14261C28.1303 1.14261 27.693 1.15723 27.2569 1.17573C26.2396 3.25257 23.9523 3.72681 21.8052 3.83706C21.3191 3.86194 20.6467 3.82494 19.922 3.79919C19.8734 4.15643 19.6562 4.46868 19.3382 4.63855C17.763 5.55403 16.2438 6.54876 14.7411 7.5705C14.8196 8.04711 14.6046 8.52435 14.1956 8.78135C10.9961 10.9072 8.33394 13.7198 5.26937 16.0258C4.10101 18.0384 3.49415 20.9336 2.79391 22.7751C2.42842 23.7362 2.05117 24.6908 1.66218 25.6393C1.75468 27.8331 1.01819 29.878 0.950944 32.0944C0.940444 32.1866 0.919195 32.2772 0.887695 32.3644C1.76018 37.1327 2.50979 41.6168 5.62724 45.9941C7.26758 48.2973 8.08707 50.7454 9.54229 53.1071C11.3154 55.9844 14.6011 57.3531 17.2907 59.2171C17.5877 59.4083 17.7889 59.7175 17.8436 60.0664C19.0883 60.7027 20.3585 61.2897 21.5763 61.9789C21.6167 62.0043 21.6557 62.0317 21.6931 62.0612C33.2474 64.7072 45.2959 60.4989 52.6902 51.2345C60.0844 41.97 61.5163 29.2882 56.3739 18.6083C51.2314 7.92837 40.4245 1.13936 28.5711 1.14261Z" fill="#E3E7F2"/>
<path d="M32.571 62.9055C33.1465 62.9055 33.7175 62.8868 34.2852 62.8558C18.0414 61.9659 4.57151 49.6081 4.57151 33.142C4.57226 16.7671 17.3642 3.24457 33.7139 2.33521C33.1461 2.30409 32.5751 2.28546 31.9997 2.28546C14.9581 2.28546 1.14307 16.1005 1.14307 33.142C1.14307 50.1836 15.5293 62.9055 32.571 62.9055Z" fill="white"/>
<path d="M31.9996 63.9986C19.9324 63.9975 8.89183 57.2088 3.4453 46.4406C-2.00123 35.6724 -0.927499 22.7562 6.22213 13.0352C6.464 12.7057 6.86349 12.5304 7.26973 12.5757C7.67598 12.6209 8.02709 12.8798 8.19047 13.2545C8.35384 13.6293 8.30459 14.0626 8.06134 14.3911C-0.981499 26.6862 0.760222 43.8324 12.0906 54.0577C23.4211 64.283 40.6557 64.2621 51.9613 54.0093C52.2637 53.735 52.6896 53.6428 53.0783 53.7676C53.4671 53.8923 53.7598 54.2151 53.8462 54.6141C53.9325 55.0132 53.7994 55.4279 53.4969 55.7023C47.6139 61.0476 39.9483 64.0059 31.9996 63.9986Z" fill="#22AAB8"/>
<path d="M58.3875 49.1423C57.9748 49.1419 57.5945 48.9192 57.3924 48.5594C57.1902 48.1997 57.1977 47.7589 57.412 47.4063C64.7172 35.3526 62.5506 19.8253 52.2249 10.2318C41.8992 0.638379 26.2548 -0.382478 14.77 7.78813C14.4375 8.025 14.0037 8.06637 13.6324 7.89688C13.261 7.72725 13.0082 7.37251 12.9694 6.96602C12.9305 6.55965 13.1115 6.16328 13.444 5.92654C25.8123 -2.87143 42.6594 -1.77158 53.7789 8.55974C64.8985 18.8911 67.2317 35.612 59.3651 48.5927C59.1579 48.9344 58.7872 49.1428 58.3875 49.1423Z" fill="#22AAB8"/>
<path d="M46.8564 19.4279H17.1427C16.5116 19.4279 15.9998 18.9163 15.9998 18.2851C15.9998 17.6538 16.5114 17.1422 17.1427 17.1422H46.8564C47.4875 17.1422 47.9993 17.6538 47.9993 18.2851C47.9993 18.9163 47.4876 19.4279 46.8564 19.4279Z" fill="#22AAB8"/>
<path d="M51.4278 37.7134H12.5714C11.9403 37.7134 11.4285 37.2017 11.4285 36.5705C11.4285 35.9394 11.9401 35.4276 12.5714 35.4276H51.4278C52.0589 35.4276 52.5707 35.9393 52.5707 36.5705C52.5707 37.2017 52.0589 37.7134 51.4278 37.7134Z" fill="#22AAB8"/>
<path d="M51.4278 28.5706H12.5714C11.9403 28.5706 11.4285 28.059 11.4285 27.4278C11.4285 26.7965 11.9401 26.2849 12.5714 26.2849H51.4278C52.0589 26.2849 52.5707 26.7965 52.5707 27.4278C52.5707 28.059 52.0589 28.5706 51.4278 28.5706Z" fill="#22AAB8"/>
<path d="M46.8564 46.856H17.1427C16.5116 46.856 15.9998 46.3444 15.9998 45.7132C15.9998 45.0821 16.5114 44.5703 17.1427 44.5703H46.8564C47.4875 44.5703 47.9993 45.082 47.9993 45.7132C47.9993 46.3443 47.4876 46.856 46.8564 46.856Z" fill="#22AAB8"/>
<path d="M10.2857 11.4281C10.9169 11.4281 11.4285 10.9164 11.4285 10.2852C11.4285 9.65404 10.9169 9.14236 10.2857 9.14236C9.6545 9.14236 9.14282 9.65404 9.14282 10.2852C9.14282 10.9164 9.6545 11.4281 10.2857 11.4281Z" fill="#22AAB8"/>
<path d="M55.9991 52.5702C56.6303 52.5702 57.142 52.0585 57.142 51.4273C57.142 50.7962 56.6303 50.2845 55.9991 50.2845C55.3679 50.2845 54.8563 50.7962 54.8563 51.4273C54.8563 52.0585 55.3679 52.5702 55.9991 52.5702Z" fill="#22AAB8"/>
</g>
<defs>
<clipPath id="clip0">
<rect width="64" height="64" fill="white"/>
</clipPath>
</defs>
</svg>
