<svg width="14" height="14" viewBox="0 0 14 14" fill="none" xmlns="http://www.w3.org/2000/svg">
<g clip-path="url(#clip0)">
<path d="M0.205078 10.222C0.318298 10.222 0.410156 10.1302 0.410156 10.0169V4.04388H12.527V6.29814C12.527 6.41147 12.6188 6.50322 12.732 6.50322C12.8454 6.50322 12.9371 6.41147 12.9371 6.29814V2.24518C12.9371 1.55763 12.3777 0.99826 11.6903 0.99826H11.1525V0.744263C11.1525 0.469543 10.9291 0.246094 10.6543 0.246094H10.2733C9.99873 0.246094 9.77528 0.469543 9.77528 0.744263V0.99826H8.41515V0.744263C8.41515 0.469543 8.1917 0.246094 7.91698 0.246094H7.53598C7.26137 0.246094 7.03792 0.469543 7.03792 0.744263V0.99826H5.67767V0.744263C5.67767 0.469543 5.45422 0.246094 5.1795 0.246094H4.79861C4.5239 0.246094 4.30045 0.469543 4.30045 0.744263V0.99826H2.94031V0.744263C2.94031 0.469543 2.71686 0.246094 2.44214 0.246094H2.06125C1.78653 0.246094 1.56308 0.469543 1.56308 0.744263V0.99826H1.24692C0.559372 0.99826 0 1.55763 0 2.24518V10.0169C0 10.1302 0.0918579 10.222 0.205078 10.222ZM10.1854 0.744263C10.1854 0.69577 10.225 0.65625 10.2735 0.65625H10.6544C10.7029 0.65625 10.7424 0.69577 10.7424 0.744263V1.7406C10.7424 1.78909 10.7029 1.82861 10.6544 1.82861H10.2735C10.225 1.82861 10.1854 1.7892 10.1854 1.7406V0.744263ZM7.44807 0.744263C7.44807 0.69577 7.48749 0.65625 7.53598 0.65625H7.91698C7.96547 0.65625 8.00499 0.69577 8.00499 0.744263V1.7406C8.00499 1.78909 7.96547 1.82861 7.91698 1.82861H7.53598C7.48749 1.82861 7.44807 1.7892 7.44807 1.7406V0.744263ZM4.7106 0.744263C4.7106 0.69577 4.75012 0.65625 4.79861 0.65625H5.17961C5.2281 0.65625 5.26762 0.69577 5.26762 0.744263V1.7406C5.26762 1.78909 5.2281 1.82861 5.17961 1.82861H4.79861C4.75012 1.82861 4.7106 1.7892 4.7106 1.7406V0.744263ZM1.97324 0.744263C1.97324 0.69577 2.01276 0.65625 2.06125 0.65625H2.44225C2.49074 0.65625 2.53015 0.69577 2.53015 0.744263V1.7406C2.53015 1.78909 2.49074 1.82861 2.44225 1.82861H2.06125C2.01276 1.82861 1.97324 1.7892 1.97324 1.7406V0.744263ZM1.24692 1.40842H1.56308V1.7406C1.56308 2.01532 1.78653 2.23877 2.06125 2.23877H2.44225C2.71686 2.23877 2.94031 2.01532 2.94031 1.7406V1.40842H4.30055V1.7406C4.30055 2.01532 4.524 2.23877 4.79861 2.23877H5.17961C5.45433 2.23877 5.67778 2.01532 5.67778 1.7406V1.40842H7.03792V1.7406C7.03792 2.01532 7.26137 2.23877 7.53609 2.23877H7.91708C8.1917 2.23877 8.41515 2.01532 8.41515 1.7406V1.40842H9.77528V1.7406C9.77528 2.01532 9.99873 2.23877 10.2735 2.23877H10.6544C10.9291 2.23877 11.1525 2.01532 11.1525 1.7406V1.40842H11.6903C12.1517 1.40842 12.5271 1.78375 12.5271 2.24518V3.63373H0.410156V2.24518C0.410156 1.78375 0.785492 1.40842 1.24692 1.40842Z" fill="#22AAB8"/>
<path d="M2.32176 12.1291H0.533524C0.465485 12.1291 0.410156 12.0738 0.410156 12.0058V10.9514C0.410156 10.8381 0.318298 10.7463 0.205078 10.7463C0.0918579 10.7463 0 10.8381 0 10.9514V12.0058C0 12.2999 0.239365 12.5393 0.533524 12.5393H2.32176C2.43498 12.5393 2.52684 12.4474 2.52684 12.3342C2.52684 12.2209 2.43498 12.1291 2.32176 12.1291Z" fill="#22AAB8"/>
<path d="M2.31491 4.64185H1.60205C1.48883 4.64185 1.39697 4.7337 1.39697 4.84692C1.39697 4.96025 1.48883 5.052 1.60205 5.052H2.31491C2.42813 5.052 2.51999 4.96025 2.51999 4.84692C2.51999 4.7337 2.42813 4.64185 2.31491 4.64185Z" fill="#22AAB8"/>
<path d="M3.79279 5.052H4.50565C4.61887 5.052 4.71072 4.96025 4.71072 4.84692C4.71072 4.7337 4.61887 4.64185 4.50565 4.64185H3.79279C3.67957 4.64185 3.58771 4.7337 3.58771 4.84692C3.58771 4.96025 3.67957 5.052 3.79279 5.052Z" fill="#22AAB8"/>
<path d="M5.98346 5.052H6.69621C6.80943 5.052 6.90129 4.96025 6.90129 4.84692C6.90129 4.7337 6.80943 4.64185 6.69621 4.64185H5.98346C5.87013 4.64185 5.77838 4.7337 5.77838 4.84692C5.77838 4.96025 5.87013 5.052 5.98346 5.052Z" fill="#22AAB8"/>
<path d="M8.17407 5.052H8.88693C9.00015 5.052 9.09201 4.96025 9.09201 4.84692C9.09201 4.7337 9.00015 4.64185 8.88693 4.64185H8.17407C8.06085 4.64185 7.96899 4.7337 7.96899 4.84692C7.96899 4.96025 8.06085 5.052 8.17407 5.052Z" fill="#22AAB8"/>
<path d="M11.0775 4.64185H10.3648C10.2514 4.64185 10.1597 4.7337 10.1597 4.84692C10.1597 4.96025 10.2514 5.052 10.3648 5.052H11.0775C11.1908 5.052 11.2826 4.96025 11.2826 4.84692C11.2826 4.7337 11.1908 4.64185 11.0775 4.64185Z" fill="#22AAB8"/>
<path d="M2.31491 5.6731H1.60205C1.48883 5.6731 1.39697 5.76485 1.39697 5.87817C1.39697 5.9915 1.48883 6.08325 1.60205 6.08325H2.31491C2.42813 6.08325 2.51999 5.9915 2.51999 5.87817C2.51999 5.76485 2.42813 5.6731 2.31491 5.6731Z" fill="#22AAB8"/>
<path d="M3.79279 6.08325H4.50565C4.61887 6.08325 4.71072 5.9915 4.71072 5.87817C4.71072 5.76485 4.61887 5.6731 4.50565 5.6731H3.79279C3.67957 5.6731 3.58771 5.76485 3.58771 5.87817C3.58771 5.9915 3.67957 6.08325 3.79279 6.08325Z" fill="#22AAB8"/>
<path d="M5.98346 6.08325H6.69621C6.80943 6.08325 6.90129 5.9915 6.90129 5.87817C6.90129 5.76485 6.80943 5.6731 6.69621 5.6731H5.98346C5.87013 5.6731 5.77838 5.76485 5.77838 5.87817C5.77838 5.9915 5.87013 6.08325 5.98346 6.08325Z" fill="#22AAB8"/>
<path d="M8.17407 6.08325H8.88693C9.00015 6.08325 9.09201 5.9915 9.09201 5.87817C9.09201 5.76485 9.00015 5.6731 8.88693 5.6731H8.17407C8.06085 5.6731 7.96899 5.76485 7.96899 5.87817C7.96899 5.9915 8.06085 6.08325 8.17407 6.08325Z" fill="#22AAB8"/>
<path d="M11.0775 5.6731H10.3648C10.2514 5.6731 10.1597 5.76485 10.1597 5.87817C10.1597 5.9915 10.2514 6.08325 10.3648 6.08325H11.0775C11.1908 6.08325 11.2826 5.9915 11.2826 5.87817C11.2826 5.76485 11.1908 5.6731 11.0775 5.6731Z" fill="#22AAB8"/>
<path d="M3.79779 10.1095L4.85223 11.1639C5.00476 11.3164 5.20749 11.4004 5.42325 11.4004C5.63901 11.4004 5.84184 11.3164 5.99426 11.1639L8.88191 8.27625C9.19679 7.96136 9.19679 7.44899 8.88191 7.13411C8.56703 6.81923 8.05466 6.81923 7.73977 7.13411L5.42325 9.45064L4.93982 8.96732C4.62504 8.65244 4.11267 8.65244 3.79768 8.96732C3.48291 9.2822 3.48291 9.79457 3.79779 10.1095ZM4.08778 9.25731C4.16522 9.17987 4.26701 9.1411 4.3688 9.1411C4.47059 9.1411 4.57239 9.17987 4.64982 9.25731L5.2782 9.88568C5.3583 9.96579 5.48808 9.96579 5.56819 9.88568L8.02977 7.42421C8.18486 7.26923 8.43693 7.26923 8.59181 7.4241C8.74679 7.57909 8.74679 7.83127 8.59181 7.98625L5.70427 10.8738C5.62918 10.9489 5.52942 10.9902 5.42325 10.9902C5.31708 10.9902 5.21731 10.9489 5.14223 10.8738L4.08778 9.81935C3.9328 9.66437 3.9328 9.41229 4.08778 9.25731Z" fill="#22AAB8"/>
<path d="M12.9371 8.86913V7.23267C12.9371 7.11934 12.8454 7.02759 12.732 7.02759C12.6188 7.02759 12.527 7.11934 12.527 7.23267V8.60754C12.153 8.41368 11.7287 8.30399 11.2792 8.30399C9.77892 8.30399 8.55838 9.52452 8.55838 11.0248C8.55838 11.4178 8.64223 11.7914 8.79272 12.1291H3.25626C3.14304 12.1291 3.05118 12.2209 3.05118 12.3342C3.05118 12.4474 3.14304 12.5393 3.25626 12.5393H9.01991C9.50879 13.2663 10.339 13.7456 11.2792 13.7456C12.7795 13.7456 14 12.5251 14 11.0248C14 10.1481 13.583 9.36697 12.9371 8.86913ZM11.2792 13.3354C10.005 13.3354 8.96854 12.299 8.96854 11.0248C8.96854 9.75064 10.0051 8.71414 11.2792 8.71414C12.5532 8.71414 13.5898 9.75064 13.5898 11.0248C13.5898 12.299 12.5532 13.3354 11.2792 13.3354Z" fill="#22AAB8"/>
<path d="M11.2792 9.0105C10.1685 9.0105 9.26483 9.91423 9.26483 11.0249C9.26483 12.1356 10.1685 13.0392 11.2792 13.0392C12.3899 13.0392 13.2934 12.1356 13.2934 11.0249C13.2934 9.91423 12.3898 9.0105 11.2792 9.0105ZM11.4628 12.6182C11.4764 12.5907 11.4843 12.56 11.4843 12.5273V12.2774C11.4843 12.1642 11.3924 12.0724 11.2792 12.0724C11.166 12.0724 11.0741 12.1642 11.0741 12.2774V12.5273C11.0741 12.56 11.0819 12.5907 11.0956 12.6182C10.3575 12.5337 9.77037 11.9465 9.68588 11.2085C9.71323 11.2221 9.74409 11.2299 9.77678 11.2299H10.0265C10.1398 11.2299 10.2316 11.1382 10.2316 11.0249C10.2316 10.9115 10.1398 10.8198 10.0265 10.8198H9.77678C9.74409 10.8198 9.71323 10.8277 9.68588 10.8412C9.77037 10.1032 10.3575 9.51604 11.0956 9.43155C11.0819 9.459 11.0741 9.48976 11.0741 9.52245V9.77228C11.0741 9.8856 11.166 9.97736 11.2792 9.97736C11.3924 9.97736 11.4843 9.8856 11.4843 9.77228V9.52245C11.4843 9.48976 11.4764 9.459 11.4628 9.43155C12.2009 9.51604 12.788 10.1032 12.8725 10.8412C12.845 10.8277 12.8143 10.8198 12.7816 10.8198H12.5318C12.4185 10.8198 12.3267 10.9115 12.3267 11.0249C12.3267 11.1382 12.4185 11.2299 12.5318 11.2299H12.7816C12.8143 11.2299 12.845 11.2221 12.8725 11.2085C12.7879 11.9465 12.2009 12.5337 11.4628 12.6182Z" fill="#22AAB8"/>
<path d="M11.7312 10.8197H11.4843V10.6094C11.4843 10.4962 11.3924 10.4043 11.2792 10.4043C11.1658 10.4043 11.0741 10.4962 11.0741 10.6094V11.0248C11.0741 11.1381 11.1658 11.2298 11.2792 11.2298H11.7312C11.8444 11.2298 11.9363 11.1381 11.9363 11.0248C11.9363 10.9114 11.8444 10.8197 11.7312 10.8197Z" fill="#22AAB8"/>
</g>
<defs>
<clipPath id="clip0">
<rect width="14" height="14" fill="white"/>
</clipPath>
</defs>
</svg>
