<svg width="35" height="31" viewBox="0 0 35 31" fill="none" xmlns="http://www.w3.org/2000/svg">
<path d="M34.7199 11.0714H28.8242L22.6303 0.537353C22.3231 0.0140785 21.6566 -0.156769 21.1416 0.157867C20.6277 0.472503 20.4614 1.15254 20.7697 1.67693L26.2937 11.0714H8.42634L13.9503 1.67685C14.2586 1.15246 14.0923 0.472428 13.5784 0.157793C13.0624 -0.156843 12.398 0.014004 12.0897 0.537279L5.89575 11.0714H0V13.2857H2.3549L5.11135 28.2894C5.39953 29.8604 6.74517 31 8.31128 31H26.4087C27.9748 31 29.3204 29.8604 29.6076 28.2905L32.365 13.2857H34.72C34.7199 13.2857 34.7199 11.0714 34.7199 11.0714ZM27.4746 27.8829C27.3793 28.4062 26.931 28.7858 26.4086 28.7858H8.31128C7.78891 28.7858 7.34075 28.4063 7.24432 27.8819L4.56202 13.2857H30.158L27.4746 27.8829Z" fill="#A5A5A5"/>
</svg>
