<svg width="37" height="31" viewBox="0 0 37 31" fill="none" xmlns="http://www.w3.org/2000/svg">
<path d="M8.37521 16.6613H1.23231C0.551651 16.6613 0 17.2129 0 17.8936V29.7677C0 30.4484 0.551651 31 1.23231 31H8.37553C9.05587 31 9.60784 30.4484 9.60784 29.7677V17.8936C9.60752 17.2129 9.05587 16.6613 8.37521 16.6613ZM7.1429 28.5354H2.46462V19.1259H7.14322V28.5354H7.1429Z" fill="#ffffff"/>
<path d="M21.6309 10.024H14.4877C13.807 10.024 13.2554 10.5757 13.2554 11.2564V29.7676C13.2554 30.4483 13.807 30.9999 14.4877 30.9999H21.6309C22.3112 30.9999 22.8632 30.4483 22.8632 29.7676V11.2564C22.8632 10.5757 22.3112 10.024 21.6309 10.024ZM20.3986 28.5353H15.72V12.4887H20.3986V28.5353Z" fill="#ffffff"/>
<path d="M34.8858 0H27.7429C27.0623 0 26.5106 0.551651 26.5106 1.23231V29.7677C26.5106 30.4483 27.0623 31 27.7429 31H34.8858C35.5665 31 36.1181 30.4483 36.1181 29.7677V1.23231C36.1181 0.551651 35.5665 0 34.8858 0ZM33.6538 28.5354H28.9752V2.4643H33.6538V28.5354Z" fill="#ffffff"/>
</svg>
