<svg width="18" height="18" viewBox="0 0 18 18" fill="none" xmlns="http://www.w3.org/2000/svg">
<path d="M8.1392 8.80299L0.17164 16.6482C-0.0497129 16.8661 -0.0497129 17.2192 0.17164 17.4372C0.282175 17.5463 0.427306 17.6006 0.572155 17.6006C0.717286 17.6006 0.862135 17.5463 0.972671 17.4372L9.00014 9.53301L17.0276 17.4372C17.1384 17.5463 17.2833 17.6006 17.4281 17.6006C17.573 17.6006 17.7181 17.5463 17.8286 17.4372C18.05 17.2192 18.05 16.8661 17.8286 16.6482L9.86136 8.80299L17.834 0.952262C18.0553 0.73431 18.0553 0.38121 17.834 0.163257C17.6126 -0.054419 17.254 -0.054419 17.033 0.163257L9.00042 8.07298L0.967046 0.163534C0.745693 -0.054142 0.387367 -0.054142 0.166014 0.163534C-0.0553381 0.381487 -0.0553381 0.734587 0.166014 0.952539L8.1392 8.80299Z" fill="#414141"/>
</svg>
