<svg width="170" height="146" viewBox="0 0 170 146" fill="none" xmlns="http://www.w3.org/2000/svg">
<rect width="91" height="146" rx="10" fill="#F6F6F6"/>
<path d="M74.1667 103.182C67.273 103.182 61.6667 109.1 61.6667 116.378C61.6667 123.656 67.273 129.574 74.1667 129.574C81.0605 129.574 86.6667 123.656 86.6667 116.378C86.6667 109.1 81.0603 103.182 74.1667 103.182ZM74.1667 125.175C69.5708 125.175 65.8335 121.23 65.8335 116.378C65.8335 111.526 69.571 107.58 74.1667 107.58C78.7625 107.58 82.5 111.526 82.5 116.378C82.5 121.23 78.7625 125.175 74.1667 125.175Z" fill="#414141"/>
<path d="M145 103.182C138.106 103.182 132.5 109.1 132.5 116.378C132.5 123.656 138.106 129.574 145 129.574C151.894 129.574 157.5 123.656 157.5 116.378C157.5 109.1 151.894 103.182 145 103.182ZM145 125.175C140.404 125.175 136.667 121.23 136.667 116.378C136.667 111.526 140.404 107.58 145 107.58C149.596 107.58 153.333 111.526 153.333 116.378C153.333 121.23 149.596 125.175 145 125.175Z" fill="#414141"/>
<path d="M169.669 90.9948L150.919 60.2031C150.535 59.5739 149.875 59.1935 149.167 59.1935H126.25C125.098 59.1935 124.167 60.1788 124.167 61.3928V116.378C124.167 117.594 125.098 118.577 126.25 118.577H134.583V114.178H128.333V63.5924H148.029L165.833 92.8312V114.179H155.417V118.577H167.917C169.069 118.577 170 117.594 170 116.378V92.1845C170 91.7644 169.885 91.3487 169.669 90.9948Z" fill="#414141"/>
<path d="M136.667 87.7855V72.3898H153.333V67.991H134.583C133.431 67.991 132.5 68.9763 132.5 70.1903V89.9848C132.5 91.2011 133.431 92.1841 134.583 92.1841H165.833V87.7852H136.667V87.7855Z" fill="#414141"/>
<path d="M126.25 43.7977H47.0833C45.9333 43.7977 45 44.7831 45 45.997V116.378C45 117.594 45.9333 118.577 47.0833 118.577H63.75V114.178H49.1667V48.1964H124.167V114.178H84.5833V118.577H126.25C127.402 118.577 128.333 117.594 128.333 116.378V45.997C128.333 44.7831 127.402 43.7977 126.25 43.7977Z" fill="#414141"/>
<path d="M59.5833 105.381H47.0833V109.78H59.5833V105.381Z" fill="#414141"/>
<path d="M124.167 105.381H88.75V109.78H124.167V105.381Z" fill="#414141"/>
<path d="M167.917 105.381H159.583V109.78H167.917V105.381Z" fill="#414141"/>
<path d="M126.25 52.5952H53.3333V56.9941H126.25V52.5952Z" fill="#414141"/>
<path d="M76.25 114.178H72.0833V118.577H76.25V114.178Z" fill="#414141"/>
<path d="M147.083 114.178H142.917V118.577H147.083V114.178Z" fill="#414141"/>
<path d="M82.5 35H53.3333V39.3988H82.5V35Z" fill="#414141"/>
<path d="M49.1667 35H45V39.3988H49.1667V35Z" fill="#414141"/>
</svg>
