<svg width="40" height="29" viewBox="0 0 40 29" fill="none" xmlns="http://www.w3.org/2000/svg">
<path d="M9.33338 20.5416C7.12736 20.5416 5.33337 22.3248 5.33337 24.5174C5.33337 26.7101 7.12736 28.4932 9.33338 28.4932C11.5394 28.4932 13.3334 26.7101 13.3334 24.5174C13.3334 22.3248 11.5393 20.5416 9.33338 20.5416ZM9.33338 27.1679C7.86268 27.1679 6.66674 25.9791 6.66674 24.5174C6.66674 23.0556 7.86275 21.8669 9.33338 21.8669C10.804 21.8669 12 23.0557 12 24.5174C12 25.9791 10.804 27.1679 9.33338 27.1679Z" fill="#414141"/>
<path d="M32 20.5416C29.794 20.5416 28 22.3248 28 24.5174C28 26.7101 29.794 28.4932 32 28.4932C34.206 28.4932 36 26.7101 36 24.5174C36 22.3248 34.206 20.5416 32 20.5416ZM32 27.1679C30.5293 27.1679 29.3334 25.9791 29.3334 24.5174C29.3334 23.0556 30.5294 21.8669 32 21.8669C33.4707 21.8669 34.6667 23.0557 34.6667 24.5174C34.6667 25.9791 33.4707 27.1679 32 27.1679Z" fill="#414141"/>
<path d="M39.894 16.87L33.894 7.5931C33.7714 7.40356 33.56 7.28894 33.3333 7.28894H26C25.6313 7.28894 25.3334 7.5858 25.3334 7.95155V24.5173C25.3334 24.8837 25.6313 25.1799 26 25.1799H28.6667V23.8546H26.6667V8.61423H32.9693L38.6667 17.4232V23.8548H35.3333V25.18H39.3333C39.702 25.18 40 24.8838 40 24.5174V17.2284C40 17.1018 39.9634 16.9766 39.894 16.87Z" fill="#414141"/>
<path d="M29.3334 15.9031V11.2647H34.6668V9.93945H28.6668C28.2981 9.93945 28.0001 10.2363 28.0001 10.6021V16.5657C28.0001 16.9322 28.2981 17.2283 28.6668 17.2283H38.6668V15.903H29.3334V15.9031Z" fill="#414141"/>
<path d="M26 2.65051H0.666642C0.298672 2.65051 0 2.94738 0 3.31312V24.5174C0 24.8838 0.298672 25.18 0.666642 25.18H6.00001V23.8547H1.33336V3.97572H25.3334V23.8547H12.6667V25.18H26C26.3687 25.18 26.6667 24.8838 26.6667 24.5174V3.31312C26.6667 2.94738 26.3687 2.65051 26 2.65051Z" fill="#414141"/>
<path d="M4.66663 21.2042H0.666626V22.5295H4.66663V21.2042Z" fill="#414141"/>
<path d="M25.3334 21.2042H14V22.5295H25.3334V21.2042Z" fill="#414141"/>
<path d="M39.3334 21.2042H36.6667V22.5295H39.3334V21.2042Z" fill="#414141"/>
<path d="M26 5.30115H2.66663V6.62642H26V5.30115Z" fill="#414141"/>
<path d="M10.0001 23.8546H8.66675V25.1799H10.0001V23.8546Z" fill="#414141"/>
<path d="M32.6667 23.8546H31.3334V25.1799H32.6667V23.8546Z" fill="#414141"/>
<path d="M12 0H2.66663V1.32528H12V0Z" fill="#414141"/>
<path d="M1.33336 0H0V1.32528H1.33336V0Z" fill="#414141"/>
</svg>
