<svg width="14" height="14" viewBox="0 0 14 14" fill="none" xmlns="http://www.w3.org/2000/svg">
<g clip-path="url(#clip0)">
<path d="M12.2909 1.67285H1.71198C0.767639 1.67285 0 2.44049 0 3.38483V10.6151C0 11.5595 0.767639 12.3271 1.71198 12.3271H12.288C13.2324 12.3271 14 11.5595 14 10.6151V3.38773C14.0029 2.44339 13.2353 1.67285 12.2909 1.67285ZM13.2208 10.6151C13.2208 11.1278 12.8036 11.545 12.2909 11.545H1.71198C1.19926 11.545 0.782123 11.1278 0.782123 10.6151V3.38773C0.782123 2.875 1.19926 2.45787 1.71198 2.45787H12.288C12.8007 2.45787 13.2179 2.875 13.2179 3.38773V10.6151H13.2208Z" fill="#22AAB8"/>
<path d="M8.82931 6.91035L12.2533 3.8398C12.4126 3.69496 12.4271 3.44874 12.2822 3.28652C12.1374 3.1272 11.8912 3.11271 11.729 3.25755L7.00725 7.4955L6.08609 6.67282C6.08319 6.66992 6.08029 6.66703 6.08029 6.66413C6.06002 6.64385 6.03974 6.62647 6.01657 6.60909L2.26817 3.25465C2.10595 3.10982 1.85973 3.1243 1.71489 3.28652C1.57005 3.44874 1.58454 3.69496 1.74675 3.8398L5.21127 6.93643L1.76124 10.1663C1.60481 10.314 1.59612 10.5603 1.74386 10.7196C1.82207 10.8007 1.92635 10.8441 2.03064 10.8441C2.12623 10.8441 2.22182 10.8094 2.29714 10.7399L5.79931 7.46363L6.74944 8.31238C6.82476 8.37901 6.91746 8.41087 7.01015 8.41087C7.10285 8.41087 7.19844 8.37611 7.27086 8.30949L8.24706 7.43467L11.729 10.7428C11.8043 10.8152 11.9028 10.8499 11.9984 10.8499C12.1026 10.8499 12.204 10.8094 12.2822 10.7283C12.43 10.5718 12.4242 10.3227 12.2678 10.175L8.82931 6.91035Z" fill="#22AAB8"/>
</g>
<defs>
<clipPath id="clip0">
<rect width="14" height="14" fill="white"/>
</clipPath>
</defs>
</svg>
