<svg width="149" height="146" viewBox="0 0 149 146" fill="none" xmlns="http://www.w3.org/2000/svg">
<rect width="91" height="146" rx="10" fill="#F6F6F6"/>
<g clip-path="url(#clip0)">
<path d="M148.905 74.8511C148.54 73.0449 147.192 71.6892 145.388 71.3128L135.663 69.2846L147.042 61.4104C148.558 60.3617 149.272 58.5882 148.906 56.782C148.54 54.9759 147.192 53.6204 145.388 53.2439L126.084 49.2181C125.071 49.0071 124.078 49.6568 123.866 50.6708C123.655 51.6845 124.305 52.6777 125.319 52.8889L144.623 56.915C145.063 57.0068 145.192 57.3375 145.231 57.5268C145.269 57.716 145.278 58.0712 144.909 58.327L127.542 70.3443L105.916 57.4133C104.506 56.5703 102.747 56.5563 101.324 57.3775L63.8864 78.9797L25.3776 70.9488C24.9376 70.857 24.8078 70.5263 24.7693 70.3373C24.7311 70.1483 24.7221 69.7931 25.0916 69.5373L66.5148 40.8736C66.691 40.7519 66.9118 40.7074 67.1208 40.7509L116.078 50.9615C117.091 51.1738 118.085 50.5228 118.296 49.5088C118.507 48.4951 117.857 47.5021 116.843 47.2906L67.8862 37.08C66.6755 36.827 65.3978 37.086 64.3809 37.79L22.9579 66.4537C21.4425 67.5024 20.7285 69.2758 21.0945 71.082C21.4605 72.8882 22.8084 74.2436 24.6124 74.6199L34.3377 76.6481L22.9582 84.5223C21.4427 85.571 20.7287 87.3444 21.0945 89.1506C21.4602 90.9568 22.8082 92.3122 24.6124 92.6885L34.3377 94.7166L22.9582 102.591C21.4427 103.639 20.7287 105.413 21.0945 107.219C21.4602 109.025 22.8082 110.381 24.6124 110.757L102.115 126.92C102.418 126.983 102.726 127.014 103.033 127.014C103.95 127.014 104.858 126.737 105.62 126.21L129.374 109.773C130.225 109.184 130.438 108.016 129.849 107.164C129.26 106.313 128.092 106.1 127.24 106.689L103.486 123.126C103.311 123.248 103.089 123.293 102.88 123.249L25.3778 107.086C24.9378 106.995 24.8078 106.664 24.7696 106.475C24.7313 106.286 24.7223 105.93 25.0918 105.675L39.4016 95.7728L63.7209 100.845C63.8501 100.872 63.9786 100.885 64.1056 100.885C64.9749 100.885 65.7546 100.277 65.9391 99.3922C66.1506 98.3785 65.5001 97.3853 64.4864 97.1738L25.3778 89.0178C24.9378 88.9261 24.8078 88.5954 24.7696 88.4064C24.7313 88.2174 24.7223 87.8619 25.0918 87.6061L39.4016 77.7043L63.8209 82.7966C64.0299 82.8398 64.2394 82.8476 64.4496 82.8198L89.7092 79.4785C89.7399 80.4902 90.5684 81.2961 91.5814 81.2961C91.5899 81.2961 91.5984 81.2961 91.6069 81.2961C92.6423 81.2821 93.4705 80.4317 93.4565 79.3962L93.4538 79.1952C93.4528 79.124 93.447 79.0542 93.4383 78.985L121.427 75.2826C121.413 75.3769 121.405 75.4726 121.406 75.5708L121.408 75.7718C121.422 76.799 122.258 77.6228 123.283 77.6228C123.291 77.6228 123.299 77.6228 123.307 77.6228C124.343 77.6095 125.172 76.7593 125.158 75.7241L125.156 75.5231C125.153 75.2696 125.099 75.0289 125.005 74.8096L127.862 74.4316C128.157 74.3926 128.438 74.2841 128.683 74.1147L131.409 72.2282L144.622 74.9836C145.062 75.0754 145.192 75.4064 145.23 75.5953C145.268 75.7843 145.277 76.1396 144.908 76.3953L103.486 105.058C103.31 105.179 103.09 105.224 102.88 105.181L73.6738 99.0897C72.6606 98.8782 71.6671 99.5287 71.4554 100.542C71.2441 101.556 71.8943 102.549 72.9081 102.761L102.115 108.852C102.418 108.915 102.726 108.946 103.033 108.946C103.95 108.946 104.858 108.669 105.62 108.141L131.408 90.2965L144.622 93.0522C145.062 93.1439 145.192 93.4747 145.23 93.6637C145.268 93.8527 145.277 94.2082 144.908 94.4639L134.775 101.476C133.923 102.065 133.711 103.233 134.3 104.084C134.664 104.61 135.248 104.893 135.843 104.893C136.211 104.893 136.583 104.785 136.908 104.559L147.042 97.5475C148.557 96.4988 149.271 94.7254 148.905 92.9194C148.539 91.1133 147.192 89.7576 145.387 89.3813L135.662 87.3532L147.042 79.479C148.557 78.4305 149.271 76.6571 148.905 74.8511ZM103.198 60.6252C103.443 60.4832 103.748 60.4857 103.992 60.6314L122.034 71.42L73.3235 77.8635L103.198 60.6252Z" fill="#414141"/>
<path d="M95.78 90.558C95.7715 90.558 95.763 90.558 95.7545 90.558C94.719 90.572 93.8908 91.4225 93.9048 92.458L93.9075 92.659C93.9213 93.686 94.758 94.509 95.782 94.509C95.7905 94.509 95.799 94.509 95.8075 94.509C96.843 94.495 97.6713 93.6445 97.6573 92.609L97.6545 92.408C97.6405 91.381 96.8038 90.558 95.78 90.558Z" fill="#414141"/>
<path d="M95.7643 100.848C95.7723 100.848 95.7805 100.848 95.7888 100.848C96.8243 100.835 97.653 99.9843 97.6398 98.9491L97.6373 98.7481C97.624 97.7126 96.7775 96.8741 95.7385 96.8971C94.703 96.9103 93.8743 97.7606 93.8875 98.7958L93.89 98.9968C93.903 100.024 94.7398 100.848 95.7643 100.848Z" fill="#414141"/>
<path d="M98.8714 97.5879L99.0712 97.5854C100.107 97.5721 100.935 96.7219 100.922 95.6864C100.909 94.6509 100.057 93.8191 99.0229 93.8356L98.8232 93.8381C97.7877 93.8514 96.9589 94.7016 96.9724 95.7371C96.9857 96.7644 97.8224 97.5881 98.8469 97.5881C98.8552 97.5879 98.8634 97.5879 98.8714 97.5879Z" fill="#414141"/>
<path d="M92.6714 93.8181L92.4717 93.8209C91.4362 93.8349 90.6082 94.6854 90.6222 95.7211C90.6362 96.7479 91.4727 97.5709 92.4967 97.5709C92.5052 97.5709 92.5139 97.5709 92.5224 97.5709L92.7222 97.5681C93.7577 97.5541 94.5857 96.7036 94.5717 95.6679C94.5577 94.6324 93.7069 93.8059 92.6714 93.8181Z" fill="#414141"/>
<path d="M109.881 82.1151C108.846 82.1284 108.017 82.9786 108.03 84.0139L108.033 84.2149C108.046 85.2421 108.883 86.0659 109.907 86.0659C109.915 86.0659 109.924 86.0659 109.932 86.0659C110.967 86.0526 111.796 85.2024 111.783 84.1671L111.78 83.9661C111.767 82.9309 110.918 82.0916 109.881 82.1151Z" fill="#414141"/>
<path d="M109.864 88.4538C108.829 88.4671 108 89.3173 108.013 90.3526L108.016 90.5536C108.029 91.5808 108.866 92.4046 109.89 92.4046C109.898 92.4046 109.906 92.4046 109.915 92.4046C110.95 92.3913 111.779 91.5411 111.766 90.5058L111.763 90.3049C111.75 89.2696 110.903 88.4426 109.864 88.4538Z" fill="#414141"/>
<path d="M112.998 89.1447L113.198 89.142C114.234 89.128 115.062 88.2775 115.048 87.242C115.034 86.2065 114.176 85.3792 113.148 85.3922L112.948 85.395C111.913 85.409 111.084 86.2595 111.098 87.295C111.112 88.322 111.949 89.1447 112.973 89.1447C112.981 89.145 112.99 89.145 112.998 89.1447Z" fill="#414141"/>
<path d="M106.599 85.3777C105.563 85.3909 104.735 86.2412 104.748 87.2767C104.761 88.3039 105.598 89.1277 106.623 89.1277C106.631 89.1277 106.639 89.1277 106.647 89.1277L106.847 89.1252C107.882 89.1119 108.711 88.2617 108.698 87.2262C108.684 86.1907 107.84 85.3584 106.799 85.3754L106.599 85.3777Z" fill="#414141"/>
<path d="M121.389 81.9097L121.392 82.1107C121.405 83.1379 122.242 83.9617 123.266 83.9617C123.274 83.9617 123.282 83.9617 123.291 83.9617C124.326 83.9484 125.155 83.0982 125.142 82.0629L125.139 81.8619C125.126 80.8264 124.278 79.9957 123.24 80.0109C122.205 80.0239 121.376 80.8742 121.389 81.9097Z" fill="#414141"/>
<path d="M126.349 80.7018C126.357 80.7018 126.365 80.7018 126.373 80.7018L126.573 80.6993C127.608 80.686 128.437 79.8358 128.424 78.8003C128.41 77.7648 127.551 76.9285 126.525 76.9495L126.325 76.952C125.289 76.9653 124.461 77.8155 124.474 78.851C124.487 79.878 125.324 80.7018 126.349 80.7018Z" fill="#414141"/>
<path d="M120.174 76.932L119.975 76.9345C118.939 76.9478 118.11 77.798 118.124 78.8335C118.137 79.8608 118.974 80.6845 119.998 80.6845C120.007 80.6845 120.015 80.6845 120.023 80.6845L120.223 80.682C121.258 80.6688 122.087 79.8185 122.073 78.783C122.06 77.7473 121.201 76.9128 120.174 76.932Z" fill="#414141"/>
<path d="M77.4537 85.7885C77.4452 85.7885 77.4367 85.7885 77.4282 85.7885C76.3927 85.8025 75.5645 86.653 75.5785 87.6885L75.5812 87.8895C75.5949 88.9165 76.4317 89.7394 77.4557 89.7394C77.4642 89.7394 77.4727 89.7394 77.4812 89.7394C78.5167 89.7254 79.3449 88.875 79.3309 87.8395L79.3282 87.6385C79.3144 86.6115 78.4777 85.7885 77.4537 85.7885Z" fill="#414141"/>
<path d="M77.4122 92.1273C76.3767 92.1405 75.548 92.9905 75.5612 94.026L75.5637 94.227C75.577 95.2543 76.4137 96.078 77.4382 96.078C77.4462 96.078 77.4545 96.078 77.4627 96.078C78.4982 96.0648 79.327 95.2148 79.3137 94.1793L79.3112 93.9783C79.2977 92.9428 78.4437 92.1188 77.4122 92.1273Z" fill="#414141"/>
<path d="M80.5466 92.818L80.7463 92.8153C81.7818 92.8013 82.6101 91.9508 82.5961 90.9153C82.5821 89.8798 81.7258 89.0448 80.6961 89.0656L80.4963 89.0683C79.4608 89.0823 78.6326 89.9328 78.6466 90.9683C78.6603 91.9953 79.4971 92.818 80.5211 92.818C80.5293 92.818 80.5381 92.818 80.5466 92.818Z" fill="#414141"/>
<path d="M74.1468 89.0511C73.1113 89.0644 72.2826 89.9146 72.2961 90.9501C72.3093 91.9774 73.1461 92.8011 74.1706 92.8011C74.1788 92.8011 74.1868 92.8011 74.1951 92.8011L74.3948 92.7986C75.4303 92.7854 76.2591 91.9351 76.2456 90.8996C76.2323 89.8639 75.3838 89.0419 74.3466 89.0489L74.1468 89.0511Z" fill="#414141"/>
<path d="M89.6869 85.5831L89.6894 85.7841C89.7027 86.8113 90.5394 87.6351 91.5639 87.6351C91.5719 87.6351 91.5802 87.6351 91.5884 87.6351C92.6239 87.6218 93.4527 86.7716 93.4394 85.7363L93.4369 85.5353C93.4237 84.4998 92.5694 83.6718 91.5382 83.6843C90.5027 83.6973 89.6739 84.5476 89.6869 85.5831Z" fill="#414141"/>
<path d="M94.8228 80.6227L94.6231 80.6252C93.5876 80.6384 92.7588 81.4887 92.7723 82.5242C92.7856 83.5514 93.6223 84.3752 94.6468 84.3752C94.6551 84.3752 94.6631 84.3752 94.6713 84.3752L94.8711 84.3727C95.9066 84.3594 96.7353 83.5092 96.7218 82.4737C96.7086 81.4379 95.8501 80.6117 94.8228 80.6227Z" fill="#414141"/>
<path d="M88.4713 80.6051L88.2716 80.6079C87.2361 80.6219 86.408 81.4724 86.422 82.5081C86.436 83.5349 87.2726 84.3579 88.2966 84.3579C88.3051 84.3579 88.3138 84.3579 88.3223 84.3579L88.522 84.3551C89.5575 84.3411 90.3856 83.4906 90.3716 82.4549C90.3573 81.4194 89.504 80.5924 88.4713 80.6051Z" fill="#414141"/>
<path d="M60.6293 86.4693C60.6378 86.4693 60.6463 86.4693 60.6548 86.4693C61.6903 86.4553 62.5186 85.6048 62.5046 84.5693L62.5018 84.3683C62.4878 83.3328 61.6478 82.5066 60.6018 82.5186C59.5663 82.5326 58.7381 83.3831 58.7521 84.4186L58.7548 84.6196C58.7688 85.6463 59.6053 86.4693 60.6293 86.4693Z" fill="#414141"/>
<path d="M60.6121 92.8081C60.6201 92.8081 60.6283 92.8081 60.6366 92.8081C61.6721 92.7949 62.5008 91.9446 62.4876 90.9094L62.4851 90.7084C62.4718 89.6811 61.6351 88.8574 60.6106 88.8574C60.6026 88.8574 60.5943 88.8574 60.5861 88.8574C59.5506 88.8706 58.7218 89.7209 58.7351 90.7561L58.7376 90.9571C58.7508 91.9844 59.5876 92.8081 60.6121 92.8081Z" fill="#414141"/>
<path d="M63.7192 89.5482L63.919 89.5457C64.9545 89.5324 65.7832 88.6822 65.7697 87.6467C65.7565 86.6112 64.904 85.7744 63.8707 85.7959L63.671 85.7984C62.6355 85.8117 61.8067 86.6619 61.8202 87.6974C61.8335 88.7247 62.6702 89.5484 63.6947 89.5484C63.703 89.5482 63.711 89.5482 63.7192 89.5482Z" fill="#414141"/>
<path d="M57.3195 85.7812C56.284 85.7952 55.4557 86.6457 55.4697 87.6812C55.4835 88.7082 56.3202 89.531 57.3442 89.531C57.3527 89.531 57.3615 89.531 57.37 89.531L57.5697 89.5282C58.6052 89.5142 59.4335 88.6637 59.4195 87.6282C59.4055 86.5927 58.5512 85.7682 57.5195 85.7785L57.3195 85.7812Z" fill="#414141"/>
<path d="M43.0532 83.9497C43.0617 83.9497 43.0702 83.9497 43.0787 83.9497C44.1142 83.9357 44.9425 83.0852 44.9285 82.0497L44.9257 81.8487C44.9117 80.8132 44.0687 79.9784 43.0257 79.9989C41.9902 80.0129 41.162 80.8634 41.176 81.8989L41.1787 82.0999C41.1927 83.1267 42.0292 83.9497 43.0532 83.9497Z" fill="#414141"/>
<path d="M43.036 90.2884C43.0445 90.2884 43.053 90.2884 43.0615 90.2884C44.097 90.2744 44.9252 89.4239 44.9112 88.3884L44.9085 88.1874C44.8945 87.1519 44.0537 86.3219 43.0085 86.3377C41.973 86.3517 41.1447 87.2022 41.1587 88.2377L41.1615 88.4387C41.1752 89.4654 42.012 90.2884 43.036 90.2884Z" fill="#414141"/>
<path d="M46.1441 87.0283L46.3439 87.0255C47.3794 87.0115 48.2076 86.161 48.1936 85.1255C48.1796 84.09 47.3301 83.2548 46.2936 83.2758L46.0939 83.2785C45.0584 83.2925 44.2301 84.143 44.2441 85.1785C44.2579 86.2055 45.0946 87.0283 46.1186 87.0283C46.1271 87.0285 46.1359 87.0285 46.1441 87.0283Z" fill="#414141"/>
<path d="M39.7446 83.2614C38.7091 83.2746 37.8804 84.1249 37.8939 85.1604C37.9071 86.1876 38.7439 87.0114 39.7684 87.0114C39.7766 87.0114 39.7846 87.0114 39.7929 87.0114L39.9926 87.0089C41.0281 86.9956 41.8569 86.1454 41.8434 85.1099C41.8301 84.0744 40.9706 83.2471 39.9444 83.2591L39.7446 83.2614Z" fill="#414141"/>
</g>
<defs>
<clipPath id="clip0">
<rect x="21" y="18" width="128" height="128" fill="white"/>
</clipPath>
</defs>
</svg>
