<svg width="31" height="31" viewBox="0 0 31 31" fill="none" xmlns="http://www.w3.org/2000/svg">
<path d="M13.2397 14.5313H0.96875C0.433998 14.5313 0 14.0973 0 13.5625C0 13.0277 0.433998 12.5938 0.96875 12.5938H13.2397C13.7744 12.5938 14.2084 13.0277 14.2084 13.5625C14.2084 14.0973 13.7744 14.5313 13.2397 14.5313Z" fill="#A5A5A5"/>
<path d="M8.39591 19.375C8.14781 19.375 7.89995 19.2806 7.71121 19.0909C7.33279 18.7123 7.33279 18.0988 7.71121 17.7203L11.8705 13.5613L7.71121 9.40342C7.33279 9.02477 7.33279 8.41125 7.71121 8.03284C8.08963 7.65442 8.70314 7.65442 9.08179 8.03284L13.9255 12.8766C14.304 13.255 14.304 13.8685 13.9255 14.2472L9.08179 19.0909C8.89188 19.2806 8.64378 19.375 8.39591 19.375Z" fill="#A5A5A5"/>
<path d="M20.6666 31C19.2418 31 18.0834 29.8413 18.0834 28.4166V5.16657C18.0834 4.0623 18.7861 3.07676 19.8322 2.71372L27.5926 0.126521C29.3286 -0.40563 31 0.882174 31 2.5834V25.8334C31 26.9365 30.2973 27.9206 29.2524 28.2848L21.4894 30.8735C21.2065 30.9612 20.9445 31 20.6666 31ZM28.4166 1.93749C28.3326 1.93749 28.2617 1.94789 28.1855 1.97107L20.4575 4.54786C20.2042 4.63584 20.0209 4.89151 20.0209 5.16657V28.4166C20.0209 28.8572 20.4987 29.1543 20.8979 29.0289L28.6259 26.4521C28.8778 26.3641 29.0625 26.1085 29.0625 25.8334V2.5834C29.0625 2.22816 28.7732 1.93749 28.4166 1.93749Z" fill="#A5A5A5"/>
<path d="M11.3022 6.45838C10.7674 6.45838 10.3334 6.02438 10.3334 5.48963V3.55213C10.3334 1.59264 11.9258 -3.05176e-05 13.8853 -3.05176e-05H28.4166C28.9513 -3.05176e-05 29.3853 0.433968 29.3853 0.96872C29.3853 1.50347 28.9513 1.93747 28.4166 1.93747H13.8853C12.9953 1.93747 12.2709 2.66214 12.2709 3.55213V5.48963C12.2709 6.02438 11.8369 6.45838 11.3022 6.45838Z" fill="#A5A5A5"/>
<path d="M19.0522 27.125H13.8853C11.9258 27.125 10.3334 25.5323 10.3334 23.5728V21.6353C10.3334 21.1006 10.7674 20.6666 11.3022 20.6666C11.8369 20.6666 12.2709 21.1006 12.2709 21.6353V23.5728C12.2709 24.4628 12.9953 25.1875 13.8853 25.1875H19.0522C19.5869 25.1875 20.0209 25.6215 20.0209 26.1562C20.0209 26.691 19.5869 27.125 19.0522 27.125Z" fill="#A5A5A5"/>
</svg>
