<svg width="14" height="14" viewBox="0 0 14 14" fill="none" xmlns="http://www.w3.org/2000/svg">
<path d="M2.42975 5.07024C2.42975 2.55065 4.4804 0.5 7.00002 0.5C9.5196 0.5 11.5702 2.55065 11.5703 5.07024C11.5703 5.8381 11.3166 6.73338 10.901 7.67312C10.4882 8.60666 9.93147 9.54923 9.3617 10.402C8.29881 11.9929 7.21384 13.2371 7.00002 13.4782C6.78619 13.2371 5.70122 11.9929 4.63834 10.402C4.06856 9.54923 3.51183 8.60666 3.09902 7.67312C2.68347 6.73338 2.42975 5.8381 2.42975 5.07024ZM3.94906 5.07024C3.94906 6.75299 5.31725 8.12122 7.00002 8.12122C8.68275 8.12122 10.0509 6.75303 10.0509 5.07027C10.0509 3.38752 8.68276 2.01929 7.00002 2.01929C5.31729 2.01929 3.94906 3.38748 3.94906 5.07024Z" fill="#22AAB8" stroke="white"/>
</svg>
