<svg width="35" height="34" viewBox="0 0 35 34" fill="none" xmlns="http://www.w3.org/2000/svg">
<g clip-path="url(#clip0)">
<path d="M6.01451 16.6387C5.56697 16.639 5.14546 16.8484 4.87438 17.2045C4.50045 16.7142 3.8557 16.517 3.27155 16.7142C2.6874 16.9116 2.29407 17.4594 2.29407 18.0759C2.29407 18.6925 2.6874 19.2403 3.27155 19.4377C3.8557 19.6349 4.50045 19.4377 4.87438 18.9474C5.28366 19.4829 6.01026 19.6618 6.62126 19.3774C7.23225 19.0933 7.56366 18.4225 7.41775 17.7645C7.27211 17.1064 6.68849 16.6382 6.01451 16.6387ZM3.73398 18.5607C3.46636 18.5607 3.24949 18.3433 3.24949 18.0757C3.24976 17.8081 3.46689 17.5909 3.73451 17.5912C4.00241 17.5912 4.21927 17.8083 4.21927 18.0759C4.219 18.3438 4.00187 18.5607 3.73398 18.5607ZM6.01451 18.5607C5.74689 18.5607 5.52976 18.3436 5.52976 18.0759C5.52976 17.8081 5.74689 17.5912 6.01451 17.5912C6.2824 17.5912 6.49954 17.8081 6.49954 18.0759C6.49927 18.3436 6.28214 18.5604 6.01451 18.5607Z" fill="#414141"/>
<path d="M34.2236 10.79C34.2236 5.74283 30.1167 1.6333 25.0693 1.6333C21.474 1.6333 18.3561 3.74348 16.8598 6.73705H5.37159C4.71807 6.74051 4.09299 7.00388 3.63402 7.46924C3.17531 7.93433 2.9207 8.56339 2.92655 9.21664V10.0708H2.12155C1.65194 10.0666 1.19987 10.2497 0.865807 10.5798C0.531474 10.9098 0.342781 11.3595 0.341187 11.8291V19.4069C0.343047 19.8759 0.532006 20.3251 0.866073 20.6544C1.20041 20.9837 1.65221 21.166 2.12155 21.1607H2.92655V25.1974C2.92655 26.5613 4.00795 27.6921 5.37159 27.6921H12.5876V31.298H10.3547C10.0916 31.298 9.87844 31.5111 9.87844 31.7743C9.87844 32.0374 10.0916 32.2505 10.3547 32.2505H24.9271C25.1902 32.2505 25.4034 32.0374 25.4034 31.7743C25.4034 31.5111 25.1902 31.298 24.9271 31.298H22.657V27.6921H29.9102C31.2739 27.6921 32.3861 26.5613 32.3861 25.1974V16.2865C33.582 14.7042 34.2273 12.7736 34.2236 10.79ZM25.0688 2.58899C29.5979 2.58899 33.2695 6.2608 33.2695 10.79C33.2695 15.3191 29.5979 18.991 25.0688 18.991C20.5393 18.991 16.8678 15.3191 16.8678 10.79C16.8728 6.26293 20.5415 2.59404 25.0688 2.58899ZM2.12155 11.0233H14.1102C14.566 11.0233 14.9689 11.3731 14.9689 11.8291V12.316H1.29369V11.8291C1.29502 11.612 1.38325 11.4044 1.53899 11.2529C1.69446 11.1014 1.90442 11.0188 2.12155 11.0233ZM1.29369 13.2685H14.9689V14.7653H1.29369V13.2685ZM1.29369 19.4069V15.7178H14.9689V19.4069C14.9689 19.8627 14.5663 20.2082 14.1102 20.2082H2.12155C1.90495 20.2137 1.69499 20.1319 1.53952 19.9812C1.38378 19.8305 1.29528 19.6235 1.29369 19.4069ZM21.7045 31.298H13.5401V27.6921H21.7045V31.298ZM31.4336 25.1974C31.4331 26.0417 30.7543 26.7287 29.9102 26.7396H5.37159C4.5331 26.7396 3.87905 26.0359 3.87905 25.1974V23.2017H31.4336V25.1974ZM3.87905 22.2492V21.1607H14.1102C15.0914 21.1607 15.9214 20.3881 15.9214 19.4069V11.8291C15.9214 10.8479 15.0914 10.0708 14.1102 10.0708H3.87905V9.21664C3.87294 8.81587 4.02708 8.42918 4.3072 8.14242C4.58758 7.85566 4.97082 7.69275 5.37159 7.68956H16.454C16.0955 8.68272 15.9132 9.7309 15.9153 10.7868C15.9153 15.8339 20.023 19.9419 25.0701 19.9419C27.4466 19.9469 29.7306 19.0218 31.4336 17.3642V22.2492H3.87905Z" fill="#414141"/>
<path d="M21.6744 15.0213L24.8702 17.2006C24.8739 17.203 24.8782 17.2048 24.8819 17.2075C24.8949 17.2157 24.9082 17.2232 24.9218 17.2303C24.9297 17.2343 24.938 17.2383 24.9462 17.2418C24.9584 17.2473 24.9712 17.2521 24.9839 17.2566C24.997 17.2612 25.0089 17.2646 25.0217 17.2678C25.0318 17.2702 25.0421 17.2729 25.0528 17.2745C25.0634 17.2763 25.0738 17.2782 25.0847 17.2792C25.0932 17.2803 25.1019 17.2808 25.111 17.2814C25.1197 17.2819 25.1298 17.2835 25.1391 17.2835C25.1487 17.2835 25.1583 17.2819 25.1679 17.2814C25.1772 17.2808 25.1854 17.2803 25.1942 17.2792C25.2053 17.2782 25.2162 17.2763 25.2271 17.2742C25.2356 17.2726 25.2439 17.2707 25.2524 17.2686C25.2731 17.2636 25.2936 17.2569 25.3135 17.2489C25.3177 17.2471 25.3225 17.2457 25.3268 17.2439C25.3398 17.238 25.3526 17.2319 25.365 17.225L25.3693 17.2224C25.3823 17.2157 25.3951 17.2088 25.4073 17.2006L28.605 15.0216C29.6176 14.3311 30.413 12.8309 30.413 11.6062V7.12196C30.4122 6.93991 30.308 6.77434 30.1446 6.69461L25.3504 4.34046C25.3249 4.32824 25.2983 4.3184 25.2712 4.31096C25.2678 4.3099 25.2641 4.3091 25.2606 4.30804C25.2548 4.30645 25.2486 4.30458 25.2428 4.30326C25.2048 4.29316 25.1657 4.28811 25.1267 4.28784H25.1261C25.027 4.28811 24.9305 4.32 24.8508 4.37873L20.1356 6.68743C19.9719 6.76743 19.868 6.93327 19.8674 7.11532V11.6062C19.8674 12.8309 20.6618 14.3311 21.6744 15.0213ZM29.4605 11.6062C29.4605 12.5173 28.8219 13.7206 28.0684 14.2344L25.6157 15.9066L25.6064 5.52657L29.4605 7.41855V11.6062ZM20.8199 7.41244L24.6499 5.5372L24.6616 15.9052L22.2107 14.2346C21.4572 13.7206 20.8199 12.5173 20.8199 11.6062V7.41244Z" fill="#414141"/>
</g>
<defs>
<clipPath id="clip0">
<rect x="0.341187" width="33.8824" height="33.8824" fill="white"/>
</clipPath>
</defs>
</svg>
