<svg width="151" height="146" viewBox="0 0 151 146" fill="none" xmlns="http://www.w3.org/2000/svg">
<rect width="91" height="146" rx="10" fill="#F6F6F6"/>
<g clip-path="url(#clip0)">
<path d="M44.4324 69.8574C42.7417 69.8584 41.1493 70.6496 40.1253 71.995C38.7126 70.1426 36.2769 69.3976 34.0701 70.1426C31.8633 70.8886 30.3774 72.9578 30.3774 75.2871C30.3774 77.6164 31.8633 79.6856 34.0701 80.4316C36.2769 81.1766 38.7126 80.4316 40.1253 78.5792C41.6714 80.6023 44.4164 81.278 46.7246 80.2037C49.0328 79.1304 50.2848 76.5963 49.7336 74.1104C49.1834 71.6245 46.9786 69.8554 44.4324 69.8574ZM35.8171 77.1184C34.8061 77.1184 33.9868 76.2971 33.9868 75.2861C33.9878 74.2751 34.8081 73.4548 35.8191 73.4558C36.8311 73.4558 37.6504 74.2761 37.6504 75.2871C37.6494 76.2991 36.8291 77.1184 35.8171 77.1184ZM44.4324 77.1184C43.4214 77.1184 42.6011 76.2981 42.6011 75.2871C42.6011 74.2751 43.4214 73.4558 44.4324 73.4558C45.4445 73.4558 46.2647 74.2751 46.2647 75.2871C46.2637 76.2981 45.4435 77.1174 44.4324 77.1184Z" fill="#414141"/>
<path d="M151 47.7624C151 28.6954 135.485 13.1705 116.417 13.1705C102.835 13.1705 91.0563 21.1423 85.4037 32.4514H42.0037C39.5349 32.4644 37.1735 33.4594 35.4396 35.2174C33.7067 36.9744 32.7448 39.3509 32.7669 41.8187V45.0456H29.7258C27.9517 45.0295 26.2439 45.7213 24.9819 46.9682C23.7189 48.2152 23.006 49.914 23 51.688V80.3151C23.007 82.0872 23.7209 83.784 24.9829 85.0279C26.2459 86.2719 27.9527 86.9606 29.7258 86.9405H32.7669V102.19C32.7669 107.343 36.8522 111.615 42.0037 111.615H69.2644V125.237H60.8288C59.8348 125.237 59.0296 126.042 59.0296 127.036C59.0296 128.03 59.8348 128.836 60.8288 128.836H115.88C116.874 128.836 117.679 128.03 117.679 127.036C117.679 126.042 116.874 125.237 115.88 125.237H107.304V111.615H134.705C139.857 111.615 144.058 107.343 144.058 102.19V68.5272C148.576 62.5493 151.014 55.2563 151 47.7624ZM116.415 16.7809C133.526 16.7809 147.396 30.6522 147.396 47.7624C147.396 64.8726 133.526 78.7439 116.415 78.7439C99.3041 78.7439 85.4338 64.8726 85.4338 47.7624C85.4529 30.6602 99.3122 16.8 116.415 16.7809ZM29.7258 48.6439H75.0163C76.7382 48.6439 78.2602 49.9652 78.2602 51.688V53.5274H26.5983V51.688C26.6034 50.8678 26.9367 50.0836 27.525 49.5114C28.1124 48.9391 28.9055 48.6268 29.7258 48.6439ZM26.5983 57.1257H78.2602V62.7802H26.5983V57.1257ZM26.5983 80.3151V66.3786H78.2602V80.3151C78.2602 82.037 76.7392 83.3422 75.0163 83.3422H29.7258C28.9075 83.3633 28.1144 83.054 27.527 82.4848C26.9387 81.9155 26.6044 81.1334 26.5983 80.3151ZM103.706 125.237H72.8627V111.615H103.706V125.237ZM140.46 102.19C140.458 105.38 137.894 107.975 134.705 108.017H42.0037C38.8361 108.017 36.3653 105.358 36.3653 102.19V94.6513H140.46V102.19ZM36.3653 91.0529V86.9405H75.0163C78.7231 86.9405 81.8586 84.0219 81.8586 80.3151V51.688C81.8586 47.9813 78.7231 45.0456 75.0163 45.0456H36.3653V41.8187C36.3422 40.3047 36.9245 38.8439 37.9827 37.7605C39.0419 36.6772 40.4897 36.0618 42.0037 36.0497H83.8706C82.5162 39.8017 81.8275 43.7614 81.8355 47.7503C81.8355 66.8173 97.3533 82.3362 116.42 82.3362C125.398 82.3553 134.027 78.8603 140.46 72.5984V91.0529H36.3653Z" fill="#414141"/>
<path d="M103.592 63.7471L115.665 71.9799C115.679 71.9889 115.695 71.996 115.709 72.006C115.759 72.0371 115.809 72.0652 115.86 72.0924C115.89 72.1074 115.921 72.1225 115.952 72.1355C115.999 72.1566 116.047 72.1747 116.095 72.1917C116.144 72.2088 116.189 72.2219 116.238 72.2339C116.276 72.243 116.315 72.253 116.355 72.259C116.395 72.266 116.434 72.2731 116.476 72.2771C116.508 72.2811 116.541 72.2831 116.575 72.2851C116.608 72.2871 116.646 72.2932 116.681 72.2932C116.718 72.2932 116.754 72.2871 116.79 72.2851C116.825 72.2831 116.856 72.2811 116.889 72.2771C116.931 72.2731 116.973 72.266 117.014 72.258C117.046 72.252 117.077 72.245 117.109 72.2369C117.187 72.2179 117.265 72.1928 117.34 72.1626C117.356 72.1556 117.374 72.1506 117.39 72.1436C117.439 72.1215 117.488 72.0984 117.535 72.0723L117.551 72.0622C117.6 72.0371 117.648 72.011 117.694 71.9799L129.775 63.7481C133.6 61.1397 136.605 55.4721 136.605 50.8457V33.9052C136.602 33.2174 136.208 32.5919 135.591 32.2907L117.48 23.3973C117.383 23.3511 117.283 23.3139 117.18 23.2858C117.167 23.2818 117.153 23.2788 117.14 23.2748C117.118 23.2688 117.095 23.2617 117.073 23.2567C116.929 23.2186 116.782 23.1995 116.634 23.1985H116.632C116.258 23.1995 115.893 23.32 115.592 23.5419L97.779 32.2636C97.1606 32.5658 96.768 33.1923 96.766 33.8801V50.8457C96.766 55.4721 99.767 61.1397 103.592 63.7471ZM133.006 50.8457C133.006 54.2874 130.594 58.8335 127.747 60.7742L118.482 67.0914L118.446 27.8781L133.006 35.0256V50.8457ZM100.364 35.0025L114.833 27.9183L114.877 67.0864L105.618 60.7752C102.772 58.8335 100.364 54.2874 100.364 50.8457V35.0025Z" fill="#414141"/>
</g>
<defs>
<clipPath id="clip0">
<rect x="23" y="7" width="128" height="128" fill="white"/>
</clipPath>
</defs>
</svg>
