<svg width="31" height="31" viewBox="0 0 31 31" fill="none" xmlns="http://www.w3.org/2000/svg">
<path d="M28.5126 20.3479C26.6146 20.3479 24.7511 20.0511 22.9851 19.4675C22.1047 19.1673 21.1023 19.4003 20.5279 19.9856L17.0423 22.6168C12.9999 20.459 10.5099 17.9698 8.38155 13.9578L10.9354 10.563C11.5989 9.90038 11.8369 8.93244 11.5518 8.02424C10.9657 6.249 10.668 4.38634 10.668 2.48759C10.668 1.11592 9.55212 0 8.18053 0H2.48743C1.11592 0 0 1.11592 0 2.48743C0 18.2095 12.7906 31 28.5126 31C29.8842 31 31.0001 29.8841 31.0001 28.5125V22.8354C31 21.4639 29.8841 20.3479 28.5126 20.3479ZM29.2778 28.5126C29.2778 28.9347 28.9347 29.2778 28.5126 29.2778C13.7399 29.2778 1.72228 17.2601 1.72228 2.48751C1.72228 2.06537 2.06538 1.72228 2.48751 1.72228H8.18061C8.60274 1.72228 8.94584 2.06537 8.94584 2.48751C8.94584 4.57048 9.27296 6.61479 9.9129 8.55148C10.002 8.83742 9.92969 9.13337 9.64044 9.43449L6.68034 13.3548C6.48191 13.618 6.45075 13.9703 6.59961 14.2638C9.01559 19.0125 11.9513 21.9482 16.7336 24.3987C17.0246 24.5509 17.3812 24.519 17.6452 24.3197L21.6556 21.2814C21.8582 21.0788 22.1619 21.0065 22.436 21.0998C24.3861 21.7439 26.4304 22.0702 28.5126 22.0702C28.9347 22.0702 29.2778 22.4133 29.2778 22.8355V28.5126Z" fill="black"/>
</svg>
