<svg width="35" height="25" viewBox="0 0 35 25" fill="none" xmlns="http://www.w3.org/2000/svg">
<path d="M34.6338 10.3076C34.537 9.82952 34.1802 9.47066 33.7026 9.371L31.1284 8.83413L34.1406 6.74978C34.5418 6.47218 34.7308 6.00274 34.6339 5.52464C34.5371 5.04653 34.1802 4.68773 33.7027 4.58807L28.5929 3.52241C28.3248 3.46656 28.0617 3.63854 28.0058 3.90695C27.9498 4.17528 28.1219 4.43819 28.3903 4.49411L33.5001 5.55984C33.6166 5.58413 33.6509 5.67167 33.6611 5.72177C33.6713 5.77186 33.6736 5.86589 33.5758 5.93359L28.9788 9.11464L23.2543 5.69172C22.8811 5.46859 22.4154 5.46488 22.0386 5.68226L12.1288 11.4005L1.93524 9.27465C1.81878 9.25036 1.78443 9.16282 1.77424 9.11279C1.76412 9.06276 1.76173 8.96873 1.85954 8.90103L12.8245 1.31359C12.8712 1.28136 12.9296 1.26958 12.9849 1.28109L25.9441 3.98391C26.2124 4.04009 26.4753 3.86777 26.5313 3.59937C26.5872 3.33103 26.4151 3.06819 26.1467 3.01221L13.1875 0.309395C12.8671 0.242427 12.5288 0.310983 12.2596 0.497329L1.29474 8.08478C0.893598 8.36238 0.704605 8.83181 0.801484 9.30992C0.898362 9.78803 1.25517 10.1468 1.73268 10.2464L4.30705 10.7833L1.29481 12.8676C0.893664 13.1452 0.704671 13.6147 0.801484 14.0928C0.898296 14.5709 1.25511 14.9297 1.73268 15.0293L4.30705 15.5661L1.29481 17.6505C0.893664 17.928 0.704671 18.3975 0.801484 18.8755C0.898296 19.3536 1.25511 19.7125 1.73268 19.8121L22.248 24.0905C22.3284 24.1073 22.4099 24.1156 22.4912 24.1156C22.7338 24.1156 22.9741 24.0421 23.1758 23.9026L29.4637 19.5517C29.6891 19.3957 29.7454 19.0865 29.5894 18.8611C29.4335 18.6357 29.1243 18.5794 28.8989 18.7354L22.6111 23.0864C22.5646 23.1185 22.506 23.1305 22.4506 23.1188L1.93531 18.8405C1.81884 18.8162 1.78443 18.7286 1.77431 18.6786C1.76418 18.6285 1.7618 18.5345 1.85961 18.4668L5.64747 15.8457L12.0849 17.1883C12.1192 17.1954 12.1532 17.1989 12.1868 17.1989C12.4169 17.1989 12.6233 17.0379 12.6721 16.8038C12.7281 16.5355 12.5559 16.2726 12.2876 16.2166L1.93531 14.0576C1.81884 14.0334 1.78443 13.9458 1.77431 13.8958C1.76418 13.8458 1.7618 13.7517 1.85961 13.684L5.64747 11.0629L12.1114 12.4108C12.1667 12.4223 12.2222 12.4243 12.2778 12.417L18.9642 11.5325C18.9723 11.8003 19.1916 12.0137 19.4598 12.0137C19.462 12.0137 19.4643 12.0137 19.4665 12.0137C19.7406 12.01 19.9599 11.7848 19.9561 11.5107L19.9554 11.4575C19.9552 11.4387 19.9536 11.4202 19.9513 11.4019L27.36 10.4218C27.3565 10.4468 27.3542 10.4721 27.3545 10.4981L27.3552 10.5513C27.3587 10.8233 27.5802 11.0413 27.8514 11.0413C27.8535 11.0413 27.8557 11.0413 27.8579 11.0413C28.1319 11.0378 28.3513 10.8127 28.3478 10.5387L28.3471 10.4855C28.3463 10.4184 28.332 10.3547 28.3071 10.2966L29.0634 10.1966C29.1415 10.1863 29.216 10.1575 29.2807 10.1127L30.0024 9.61333L33.4998 10.3427C33.6163 10.367 33.6507 10.4546 33.6609 10.5046C33.671 10.5547 33.6734 10.6487 33.5756 10.7164L22.611 18.3035C22.5645 18.3357 22.5062 18.3475 22.4506 18.3361L14.7195 16.7237C14.4513 16.6677 14.1884 16.8399 14.1323 17.1083C14.0764 17.3766 14.2485 17.6395 14.5168 17.6954L22.248 19.3078C22.3284 19.3245 22.4099 19.3328 22.4912 19.3328C22.7339 19.3328 22.9742 19.2593 23.1758 19.1198L30.0022 14.3961L33.4999 15.1256C33.6164 15.1498 33.6508 15.2374 33.6609 15.2874C33.671 15.3374 33.6734 15.4315 33.5756 15.4992L30.8933 17.3553C30.6679 17.5113 30.6116 17.8204 30.7676 18.0458C30.8639 18.185 31.0187 18.2598 31.1761 18.2598C31.2736 18.2598 31.372 18.2312 31.4581 18.1715L34.1404 16.3155C34.5416 16.0379 34.7306 15.5685 34.6337 15.0904C34.5369 14.6123 34.1801 14.2535 33.7025 14.1539L31.1282 13.617L34.1404 11.5326C34.5416 11.2551 34.7306 10.7857 34.6338 10.3076ZM22.5347 6.54193C22.5997 6.50434 22.6803 6.505 22.7449 6.54358L27.5209 9.39939L14.6268 11.105L22.5347 6.54193Z" fill="#414141"/>
<path d="M20.5711 14.4653C20.5689 14.4653 20.5666 14.4653 20.5644 14.4653C20.2903 14.469 20.071 14.6942 20.0748 14.9683L20.0755 15.0215C20.0791 15.2933 20.3006 15.5112 20.5717 15.5112C20.5739 15.5112 20.5762 15.5112 20.5784 15.5112C20.8525 15.5075 21.0718 15.2823 21.0681 15.0082L21.0673 14.955C21.0636 14.6832 20.8421 14.4653 20.5711 14.4653Z" fill="#414141"/>
<path d="M20.567 17.1891C20.5691 17.1891 20.5713 17.1891 20.5735 17.1891C20.8476 17.1856 21.067 16.9605 21.0635 16.6865L21.0628 16.6333C21.0593 16.3592 20.8352 16.1372 20.5602 16.1433C20.2861 16.1468 20.0667 16.3719 20.0702 16.6459L20.0709 16.6991C20.0743 16.971 20.2958 17.1891 20.567 17.1891Z" fill="#414141"/>
<path d="M21.3894 16.3262L21.4423 16.3255C21.7164 16.322 21.9358 16.097 21.9322 15.8229C21.9287 15.5487 21.7033 15.3286 21.4295 15.3329L21.3767 15.3336C21.1026 15.3371 20.8832 15.5622 20.8868 15.8363C20.8903 16.1082 21.1118 16.3263 21.383 16.3263C21.3851 16.3262 21.3873 16.3262 21.3894 16.3262Z" fill="#414141"/>
<path d="M19.7483 15.3283L19.6954 15.329C19.4213 15.3327 19.2022 15.5578 19.2059 15.832C19.2096 16.1038 19.431 16.3217 19.7021 16.3217C19.7043 16.3217 19.7066 16.3217 19.7089 16.3217L19.7617 16.3209C20.0358 16.3172 20.255 16.0921 20.2513 15.8179C20.2476 15.5438 20.0224 15.325 19.7483 15.3283Z" fill="#414141"/>
<path d="M24.304 12.2305C24.0299 12.234 23.8105 12.459 23.814 12.7331L23.8147 12.7863C23.8182 13.0582 24.0397 13.2763 24.3109 13.2763C24.313 13.2763 24.3152 13.2763 24.3173 13.2763C24.5914 13.2728 24.8108 13.0477 24.8073 12.7737L24.8067 12.7204C24.8031 12.4464 24.5784 12.2243 24.304 12.2305Z" fill="#414141"/>
<path d="M24.2993 13.9084C24.0252 13.9119 23.8059 14.1369 23.8094 14.411L23.81 14.4642C23.8135 14.7361 24.035 14.9541 24.3062 14.9541C24.3083 14.9541 24.3105 14.9541 24.3127 14.9541C24.5868 14.9506 24.8062 14.7256 24.8027 14.4515L24.802 14.3983C24.7984 14.1243 24.5743 13.9054 24.2993 13.9084Z" fill="#414141"/>
<path d="M25.129 14.0913L25.1818 14.0905C25.4559 14.0868 25.6752 13.8617 25.6715 13.5876C25.6678 13.3135 25.4407 13.0945 25.1685 13.0979L25.1157 13.0987C24.8416 13.1024 24.6223 13.3275 24.626 13.6016C24.6297 13.8735 24.8512 14.0913 25.1222 14.0913C25.1245 14.0913 25.1267 14.0913 25.129 14.0913Z" fill="#414141"/>
<path d="M23.435 13.094C23.1609 13.0976 22.9415 13.3226 22.9451 13.5967C22.9486 13.8686 23.1701 14.0867 23.4413 14.0867C23.4435 14.0867 23.4456 14.0867 23.4478 14.0867L23.5007 14.086C23.7748 14.0825 23.9941 13.8575 23.9906 13.5834C23.9871 13.3093 23.7636 13.089 23.4879 13.0935L23.435 13.094Z" fill="#414141"/>
<path d="M27.35 12.176L27.3507 12.2292C27.3542 12.5011 27.5757 12.7192 27.8469 12.7192C27.849 12.7192 27.8512 12.7192 27.8534 12.7192C28.1275 12.7157 28.3468 12.4906 28.3433 12.2166L28.3427 12.1634C28.3392 11.8893 28.1147 11.6694 27.8401 11.6734C27.5659 11.6768 27.3465 11.9019 27.35 12.176Z" fill="#414141"/>
<path d="M28.6629 11.8564C28.665 11.8564 28.6672 11.8564 28.6693 11.8564L28.7222 11.8557C28.9963 11.8522 29.2157 11.6271 29.2121 11.353C29.2086 11.0789 28.9811 10.8576 28.7094 10.8631L28.6566 10.8638C28.3825 10.8673 28.1631 11.0924 28.1667 11.3665C28.1702 11.6383 28.3917 11.8564 28.6629 11.8564Z" fill="#414141"/>
<path d="M27.0285 10.8585L26.9757 10.8591C26.7016 10.8627 26.4822 11.0877 26.4858 11.3618C26.4893 11.6337 26.7108 11.8518 26.982 11.8518C26.9841 11.8518 26.9863 11.8518 26.9884 11.8518L27.0413 11.8511C27.3154 11.8476 27.5348 11.6226 27.5312 11.3485C27.5277 11.0743 27.3004 10.8534 27.0285 10.8585Z" fill="#414141"/>
<path d="M15.7201 13.2029C15.7178 13.2029 15.7156 13.2029 15.7133 13.2029C15.4392 13.2066 15.22 13.4317 15.2237 13.7058L15.2244 13.759C15.228 14.0309 15.4495 14.2487 15.7206 14.2487C15.7228 14.2487 15.7251 14.2487 15.7273 14.2487C16.0015 14.245 16.2207 14.0199 16.217 13.7458L16.2163 13.6926C16.2126 13.4207 15.9911 13.2029 15.7201 13.2029Z" fill="#414141"/>
<path d="M15.7091 14.8808C15.435 14.8843 15.2157 15.1093 15.2192 15.3834L15.2198 15.4366C15.2233 15.7085 15.4448 15.9265 15.716 15.9265C15.7181 15.9265 15.7203 15.9265 15.7225 15.9265C15.9966 15.923 16.216 15.698 16.2125 15.4239L16.2118 15.3707C16.2082 15.0966 15.9822 14.8785 15.7091 14.8808Z" fill="#414141"/>
<path d="M16.5388 15.0636L16.5916 15.0629C16.8657 15.0592 17.085 14.834 17.0813 14.5599C17.0776 14.2858 16.8509 14.0648 16.5783 14.0703L16.5255 14.071C16.2513 14.0747 16.0321 14.2999 16.0358 14.574C16.0395 14.8458 16.2609 15.0636 16.532 15.0636C16.5342 15.0636 16.5365 15.0636 16.5388 15.0636Z" fill="#414141"/>
<path d="M14.8448 14.0664C14.5707 14.0699 14.3513 14.295 14.3549 14.5691C14.3584 14.841 14.5799 15.059 14.8511 15.059C14.8533 15.059 14.8554 15.059 14.8576 15.059L14.9105 15.0584C15.1846 15.0549 15.4039 14.8298 15.4004 14.5557C15.3969 14.2815 15.1722 14.064 14.8977 14.0658L14.8448 14.0664Z" fill="#414141"/>
<path d="M18.9583 13.1484L18.959 13.2016C18.9625 13.4735 19.184 13.6916 19.4551 13.6916C19.4573 13.6916 19.4594 13.6916 19.4616 13.6916C19.7357 13.6881 19.9551 13.463 19.9516 13.189L19.9509 13.1358C19.9474 12.8617 19.7213 12.6425 19.4483 12.6458C19.1742 12.6492 18.9549 12.8743 18.9583 13.1484Z" fill="#414141"/>
<path d="M20.3178 11.8355L20.265 11.8361C19.9909 11.8396 19.7715 12.0647 19.7751 12.3388C19.7786 12.6107 20.0001 12.8288 20.2713 12.8288C20.2734 12.8288 20.2756 12.8288 20.2777 12.8288L20.3306 12.8281C20.6047 12.8246 20.8241 12.5996 20.8205 12.3254C20.817 12.0513 20.5898 11.8326 20.3178 11.8355Z" fill="#414141"/>
<path d="M18.6365 11.8307L18.5836 11.8315C18.3095 11.8352 18.0903 12.0603 18.094 12.3345C18.0977 12.6062 18.3192 12.8241 18.5902 12.8241C18.5925 12.8241 18.5948 12.8241 18.597 12.8241L18.6499 12.8234C18.924 12.8197 19.1432 12.5945 19.1395 12.3204C19.1357 12.0463 18.9099 11.8274 18.6365 11.8307Z" fill="#414141"/>
<path d="M11.2666 13.383C11.2689 13.383 11.2711 13.383 11.2734 13.383C11.5475 13.3793 11.7667 13.1541 11.763 12.88L11.7623 12.8268C11.7586 12.5527 11.5362 12.334 11.2593 12.3372C10.9852 12.3409 10.766 12.566 10.7697 12.8401L10.7704 12.8933C10.7741 13.1651 10.9956 13.383 11.2666 13.383Z" fill="#414141"/>
<path d="M11.262 15.0609C11.2641 15.0609 11.2663 15.0609 11.2685 15.0609C11.5426 15.0574 11.762 14.8323 11.7585 14.5583L11.7578 14.5051C11.7543 14.2332 11.5328 14.0151 11.2616 14.0151C11.2595 14.0151 11.2573 14.0151 11.2551 14.0151C10.981 14.0186 10.7617 14.2437 10.7652 14.5177L10.7658 14.571C10.7693 14.8429 10.9908 15.0609 11.262 15.0609Z" fill="#414141"/>
<path d="M12.0845 14.1981L12.1374 14.1974C12.4115 14.1939 12.6309 13.9688 12.6273 13.6947C12.6238 13.4206 12.3981 13.1991 12.1246 13.2048L12.0717 13.2055C11.7976 13.209 11.5783 13.4341 11.5818 13.7082C11.5853 13.9801 11.8068 14.1981 12.078 14.1981C12.0802 14.1981 12.0823 14.1981 12.0845 14.1981Z" fill="#414141"/>
<path d="M10.3904 13.2008C10.1163 13.2045 9.8971 13.4297 9.9008 13.7038C9.90444 13.9756 10.1259 14.1934 10.397 14.1934C10.3992 14.1934 10.4016 14.1934 10.4038 14.1934L10.4567 14.1927C10.7308 14.189 10.95 13.9638 10.9463 13.6897C10.9426 13.4156 10.7165 13.1974 10.4434 13.2001L10.3904 13.2008Z" fill="#414141"/>
<path d="M6.61415 12.7161C6.6164 12.7161 6.61865 12.7161 6.6209 12.7161C6.89501 12.7123 7.11425 12.4872 7.11054 12.2131L7.10982 12.1599C7.10611 11.8858 6.88296 11.6648 6.60687 11.6703C6.33277 11.674 6.11353 11.8991 6.11723 12.1732L6.11796 12.2264C6.12167 12.4982 6.34309 12.7161 6.61415 12.7161Z" fill="#414141"/>
<path d="M6.60951 14.394C6.61176 14.394 6.61401 14.394 6.61626 14.394C6.89037 14.3903 7.10961 14.1652 7.1059 13.891L7.10518 13.8378C7.10147 13.5637 6.87892 13.344 6.60224 13.3482C6.32813 13.3519 6.10889 13.577 6.1126 13.8511L6.11332 13.9044C6.11696 14.1761 6.33846 14.394 6.60951 14.394Z" fill="#414141"/>
<path d="M7.43231 13.531L7.48518 13.5303C7.75929 13.5266 7.97853 13.3014 7.97482 13.0273C7.97112 12.7532 7.74625 12.5321 7.47188 12.5377L7.41901 12.5384C7.1449 12.5421 6.92566 12.7673 6.92937 13.0414C6.93301 13.3132 7.1545 13.531 7.42556 13.531C7.42781 13.5311 7.43012 13.5311 7.43231 13.531Z" fill="#414141"/>
<path d="M5.73824 12.5338C5.46414 12.5373 5.24476 12.7624 5.24833 13.0365C5.25184 13.3084 5.47333 13.5265 5.74452 13.5265C5.74671 13.5265 5.74883 13.5265 5.75101 13.5265L5.80388 13.5258C6.07799 13.5223 6.29736 13.2972 6.29379 13.0231C6.29028 12.749 6.06277 12.5301 5.79111 12.5332L5.73824 12.5338Z" fill="#414141"/>
</svg>
