<svg width="200" height="171" viewBox="0 0 200 171" fill="none" xmlns="http://www.w3.org/2000/svg">
<g opacity="0.3">
<g clip-path="url(#clip0)">
<path d="M196.61 47.0684C191.028 47.0684 188.411 45.0171 185.098 42.42C181.408 39.5267 177.225 36.2474 169.006 36.2474C160.786 36.2474 156.603 39.5267 152.912 42.42C149.6 45.0171 146.984 47.0684 141.402 47.0684C135.82 47.0684 133.204 45.0171 129.891 42.42C126.201 39.5267 122.018 36.2474 113.799 36.2474C105.579 36.2474 101.396 39.5267 97.7058 42.4204C94.3941 45.0174 91.7777 47.0684 86.1961 47.0684C80.6149 47.0684 77.9989 45.0171 74.6868 42.4204C70.9966 39.5271 66.8142 36.2474 58.5948 36.2474C50.3753 36.2474 46.1929 39.5267 42.5023 42.42C39.1906 45.0171 36.5742 47.0684 30.9926 47.0684C25.411 47.0684 22.7947 45.0171 19.4826 42.42C15.792 39.5271 11.6096 36.2474 3.39012 36.2474C1.51748 36.2474 0.000305176 37.5452 0.000305176 39.1457C0.000305176 40.7461 1.51748 42.044 3.39012 42.044C8.97172 42.044 11.5881 44.0953 14.8998 46.692C18.59 49.5853 22.7728 52.865 30.9926 52.865C39.2121 52.865 43.3945 49.5856 47.0851 46.6927C50.3968 44.0956 53.0132 42.0443 58.5948 42.0443C64.176 42.0443 66.792 44.0956 70.1041 46.6923C73.7943 49.5856 77.9766 52.8653 86.1961 52.8653C94.4156 52.8653 98.598 49.5863 102.289 46.693C105.601 44.096 108.217 42.0446 113.799 42.0446C119.38 42.0446 121.997 44.0959 125.309 46.6927C128.999 49.5859 133.182 52.8656 141.402 52.8656C149.621 52.8656 153.804 49.5866 157.494 46.6933C160.807 44.0963 163.423 42.045 169.006 42.045C174.588 42.045 177.204 44.0963 180.517 46.6933C184.207 49.5866 188.39 52.8656 196.61 52.8656C198.482 52.8656 200 51.5678 200 49.9673C200 48.3662 198.482 47.0684 196.61 47.0684Z" fill="url(#paint0_linear)"/>
<path d="M196.609 74.364C191.027 74.364 188.41 72.3127 185.098 69.7157C181.408 66.8224 177.225 63.543 169.005 63.543C160.785 63.543 156.602 66.8224 152.912 69.7157C149.6 72.3127 146.983 74.364 141.401 74.364C135.819 74.364 133.203 72.3127 129.89 69.7157C126.2 66.8224 122.018 63.543 113.798 63.543C105.578 63.543 101.396 66.8224 97.7051 69.716C94.3934 72.3131 91.777 74.364 86.1954 74.364C80.6142 74.364 77.9986 72.3127 74.6861 69.716C74.2631 69.3844 73.8404 69.0527 73.4115 68.7258C72.0139 67.6604 69.8709 67.7662 68.6252 68.9605C67.3795 70.1555 67.503 71.9878 68.9002 73.0528C69.3053 73.3614 69.7045 73.6747 70.1037 73.9876C73.7939 76.8806 77.9763 80.16 86.1954 80.16C94.4149 80.16 98.5972 76.8809 102.288 73.9876C105.6 71.3906 108.216 69.3393 113.798 69.3393C119.379 69.3393 121.996 71.3906 125.308 73.9873C128.999 76.8806 133.181 80.1603 141.401 80.1603C149.62 80.1603 153.803 76.8813 157.494 73.988C160.806 71.3909 163.422 69.3396 169.005 69.3396C174.587 69.3396 177.204 71.3909 180.516 73.988C184.206 76.8813 188.389 80.1603 196.609 80.1603C198.482 80.1603 199.999 78.8624 199.999 77.262C199.999 75.6616 198.481 74.364 196.609 74.364Z" fill="url(#paint1_linear)"/>
<path d="M63.4275 63.9779C61.9182 63.6896 60.292 63.543 58.5948 63.543C50.3753 63.543 46.1929 66.8224 42.5023 69.7153C39.1906 72.3124 36.5742 74.3637 30.9926 74.3637C25.411 74.3637 22.7947 72.3124 19.4826 69.7153C15.7924 66.8221 11.6096 63.543 3.39012 63.543C1.51748 63.543 0.000305176 64.8409 0.000305176 66.4413C0.000305176 68.0418 1.51748 69.3403 3.39012 69.3403C8.97172 69.3403 11.5881 71.3916 14.8998 73.9883C18.59 76.8816 22.7728 80.1613 30.9926 80.1613C39.2121 80.1613 43.3945 76.8819 47.0851 73.9886C50.3968 71.3916 53.0132 69.3403 58.5948 69.3403C59.8127 69.3403 60.91 69.4368 61.949 69.6352C63.7748 69.9839 65.5885 69.001 65.9967 67.4386C66.4049 65.8762 65.2545 64.3269 63.4275 63.9779Z" fill="url(#paint2_linear)"/>
<path d="M196.609 128.955C191.027 128.955 188.41 126.904 185.098 124.307C181.408 121.414 177.225 118.135 169.005 118.135C160.785 118.135 156.602 121.414 152.912 124.307C149.6 126.904 146.983 128.955 141.401 128.955C135.819 128.955 133.203 126.904 129.89 124.307C126.2 121.414 122.018 118.135 113.798 118.135C105.578 118.135 101.396 121.414 97.7052 124.308C94.3935 126.905 91.7771 128.956 86.1955 128.956C80.6143 128.956 77.9983 126.904 74.6862 124.308C70.996 121.414 66.8136 118.135 58.5941 118.135C50.3747 118.135 46.1923 121.414 42.5017 124.307C39.19 126.904 36.5736 128.955 30.992 128.955C29.1193 128.955 27.6022 130.253 27.6022 131.854C27.6022 133.454 29.1193 134.752 30.992 134.752C39.2115 134.752 43.3938 131.473 47.0844 128.58C50.3961 125.983 53.0125 123.931 58.5941 123.931C64.1753 123.931 66.7913 125.983 70.1034 128.579C73.7936 131.473 77.976 134.752 86.1955 134.752C94.4149 134.752 98.5973 131.473 102.288 128.58C105.6 125.983 108.216 123.932 113.798 123.932C119.38 123.932 121.996 125.983 125.308 128.58C128.999 131.473 133.181 134.752 141.401 134.752C149.62 134.752 153.803 131.473 157.494 128.58C160.807 125.983 163.423 123.932 169.005 123.932C174.587 123.932 177.204 125.983 180.516 128.58C184.206 131.473 188.389 134.752 196.609 134.752C198.482 134.752 199.999 133.454 199.999 131.854C199.999 130.253 198.481 128.955 196.609 128.955Z" fill="url(#paint3_linear)"/>
<path d="M23.0575 126.885C21.8224 126.142 20.6861 125.25 19.4826 124.307C15.7924 121.414 11.6096 118.134 3.39012 118.134C1.51748 118.134 0.000305176 119.432 0.000305176 121.033C0.000305176 122.633 1.51748 123.931 3.39012 123.931C8.97172 123.931 11.5881 125.982 14.9002 128.579C16.2088 129.605 17.5611 130.665 19.1533 131.624C19.7466 131.982 20.4275 132.153 21.1025 132.153C22.1677 132.153 23.2173 131.725 23.8775 130.924C24.9552 129.615 24.588 127.807 23.0575 126.885Z" fill="url(#paint4_linear)"/>
<path d="M196.609 101.66C191.027 101.66 188.41 99.6084 185.098 97.0113C181.408 94.118 177.225 90.839 169.005 90.839C160.785 90.839 156.603 94.118 152.912 97.011C151.532 98.0927 151.439 99.926 152.705 101.106C153.969 102.286 156.114 102.365 157.494 101.284C160.807 98.6869 163.423 96.6356 169.005 96.6356C174.587 96.6356 177.204 98.6869 180.516 101.284C184.206 104.177 188.389 107.456 196.609 107.456C198.482 107.456 199.999 106.158 199.999 104.558C199.999 102.957 198.481 101.66 196.609 101.66Z" fill="url(#paint5_linear)"/>
<path d="M149.268 103.373C148.802 101.822 146.957 100.888 145.141 101.286C143.995 101.537 142.771 101.66 141.401 101.66C135.819 101.66 133.203 99.6087 129.89 97.0116C126.2 94.1184 122.018 90.839 113.798 90.839C105.578 90.839 101.396 94.1184 97.7052 97.012C94.3935 99.609 91.7771 101.66 86.1955 101.66C80.6143 101.66 77.9983 99.6087 74.6862 97.0116C70.996 94.1187 66.8136 90.839 58.5942 90.839C50.3747 90.839 46.1923 94.1184 42.5017 97.0116C39.19 99.6087 36.5736 101.66 30.992 101.66C25.4104 101.66 22.794 99.6087 19.482 97.0116C15.7918 94.1184 11.609 90.839 3.38951 90.839C1.51687 90.839 -0.000305176 92.1368 -0.000305176 93.7373C-0.000305176 95.3377 1.51765 96.6352 3.39029 96.6352C8.97189 96.6352 11.5883 98.6866 14.9 101.283C18.5902 104.177 22.773 107.456 30.9928 107.456C39.2123 107.456 43.3947 104.177 47.0853 101.284C50.397 98.6866 53.0133 96.6352 58.5949 96.6352C64.1762 96.6352 66.7921 98.6866 70.1042 101.284C73.7944 104.177 77.9768 107.456 86.1963 107.456C94.4158 107.456 98.5981 104.177 102.289 101.284C105.601 98.6866 108.217 96.6352 113.799 96.6352C119.38 96.6352 121.997 98.6866 125.309 101.284C128.999 104.177 133.182 107.456 141.402 107.456C143.321 107.456 145.147 107.269 146.827 106.9C148.641 106.503 149.733 104.923 149.268 103.373Z" fill="url(#paint6_linear)"/>
</g>
</g>
<defs>
<linearGradient id="paint0_linear" x1="99.9999" y1="36.2474" x2="99.9999" y2="52.8656" gradientUnits="userSpaceOnUse">
<stop stop-color="#22AAB8"/>
<stop offset="1" stop-color="#A4C2F7"/>
</linearGradient>
<linearGradient id="paint1_linear" x1="133.882" y1="63.543" x2="133.882" y2="80.1603" gradientUnits="userSpaceOnUse">
<stop stop-color="#22AAB8"/>
<stop offset="1" stop-color="#A4C2F7"/>
</linearGradient>
<linearGradient id="paint2_linear" x1="33.0396" y1="63.543" x2="33.0396" y2="80.1613" gradientUnits="userSpaceOnUse">
<stop stop-color="#22AAB8"/>
<stop offset="1" stop-color="#A4C2F7"/>
</linearGradient>
<linearGradient id="paint3_linear" x1="113.801" y1="118.135" x2="113.801" y2="134.752" gradientUnits="userSpaceOnUse">
<stop stop-color="#22AAB8"/>
<stop offset="1" stop-color="#A4C2F7"/>
</linearGradient>
<linearGradient id="paint4_linear" x1="12.2481" y1="118.134" x2="12.2481" y2="132.153" gradientUnits="userSpaceOnUse">
<stop stop-color="#22AAB8"/>
<stop offset="1" stop-color="#A4C2F7"/>
</linearGradient>
<linearGradient id="paint5_linear" x1="175.906" y1="90.839" x2="175.906" y2="107.456" gradientUnits="userSpaceOnUse">
<stop stop-color="#22AAB8"/>
<stop offset="1" stop-color="#A4C2F7"/>
</linearGradient>
<linearGradient id="paint6_linear" x1="74.6873" y1="90.839" x2="74.6873" y2="107.456" gradientUnits="userSpaceOnUse">
<stop stop-color="#22AAB8"/>
<stop offset="1" stop-color="#A4C2F7"/>
</linearGradient>
<clipPath id="clip0">
<rect width="200" height="171" fill="white"/>
</clipPath>
</defs>
</svg>
