<svg width="30" height="31" viewBox="0 0 30 31" fill="none" xmlns="http://www.w3.org/2000/svg">
<path d="M29.7405 28.8689L22.4484 21.5784C24.4045 19.3301 25.5888 16.3966 25.5888 13.1904C25.5888 6.13276 19.847 0.398834 12.7944 0.398834C5.7352 0.398834 0 6.13941 0 13.1904C0 20.2414 5.74185 25.982 12.7944 25.982C16.0013 25.982 18.9355 24.7979 21.1843 22.8423L28.4764 30.1328C28.6494 30.3057 28.8822 30.3988 29.1085 30.3988C29.3347 30.3988 29.5675 30.3124 29.7405 30.1328C30.0865 29.7869 30.0865 29.2148 29.7405 28.8689ZM1.78975 13.1904C1.78975 7.12389 6.72655 2.19484 12.7878 2.19484C18.8556 2.19484 23.7858 7.13054 23.7858 13.1904C23.7858 19.2503 18.8556 24.1926 12.7878 24.1926C6.72655 24.1926 1.78975 19.2569 1.78975 13.1904Z" fill="#A5A5A5"/>
</svg>
