<svg width="160" height="146" viewBox="0 0 160 146" fill="none" xmlns="http://www.w3.org/2000/svg">
<rect width="91" height="146" rx="10" fill="#F6F6F6"/>
<path d="M98.5806 94.9565C98.5806 99.3616 99.8032 103.629 102.118 107.295L119.693 135.132L137.269 107.295C139.584 103.629 140.806 99.3616 140.806 94.9565C140.806 82.6893 131.354 72.7098 119.653 72.7098C108.033 72.7098 98.5806 82.6893 98.5806 94.9565ZM136.968 94.9565C136.968 98.5592 135.968 102.048 134.075 105.047L119.693 127.825L105.312 105.047C103.419 102.048 102.419 98.5592 102.419 94.9565C102.419 84.9243 110.15 76.7624 119.734 76.7624C129.237 76.7624 136.968 84.9243 136.968 94.9565Z" fill="#414141"/>
<path d="M133.008 119.949L132.659 123.985C149.267 125.586 156.161 129.654 156.161 131.478C156.161 134.191 143.434 139.51 120.108 139.577H119.285C95.953 139.51 83.2258 134.191 83.2258 131.478C83.2258 129.654 90.1201 125.586 106.728 123.987L106.379 119.951C98.2639 120.733 79.3871 123.42 79.3871 131.478C79.3871 139.749 100.062 143.575 119.279 143.63H120.112C139.325 143.575 160 139.749 160 131.478C160 123.42 141.123 120.733 133.008 119.949Z" fill="#414141"/>
<path d="M119.694 109.183C127.104 109.183 133.131 102.818 133.131 94.997C133.131 87.1755 127.104 80.809 119.694 80.809C112.283 80.809 106.256 87.1735 106.256 94.995C106.256 102.816 112.283 109.183 119.694 109.183ZM119.694 84.8615C124.987 84.8615 129.292 89.4085 129.292 94.995C129.292 100.581 124.987 105.13 119.694 105.13C114.4 105.13 110.095 100.583 110.095 94.997C110.095 89.4105 114.4 84.8615 119.694 84.8615Z" fill="#414141"/>
<path d="M110.097 18H56.3549V30.1578H110.097V18ZM106.258 26.1052H60.1936V22.0526H106.258V26.1052Z" fill="#414141"/>
<path d="M106.258 34.2103H102.419V74.7361H106.258V52.4469H117.774V48.3943H106.258V44.3418H121.613V68.6572H125.452V40.2892H106.258V34.2103Z" fill="#414141"/>
<path d="M94.742 101.078V99.0516V78.7887H98.5807V74.7361H67.871V78.7887H71.7097V99.0516H64.0323V34.2103H60.1936V40.2892H41V103.104H94.742V101.078ZM60.1936 48.3943H48.6774V52.4469H60.1936V99.0516H44.8387V44.3418H60.1936V48.3943ZM90.9033 99.0516H75.5484V78.7887H90.9033V99.0516Z" fill="#414141"/>
<path d="M67.871 50.4207C67.871 59.3586 74.7595 66.631 83.2258 66.631C91.6921 66.631 98.5807 59.3586 98.5807 50.4207C98.5807 41.4827 91.6921 34.2103 83.2258 34.2103C74.7595 34.2103 67.871 41.4827 67.871 50.4207ZM94.742 50.4207C94.742 57.1257 89.577 62.5784 83.2258 62.5784C76.8747 62.5784 71.7097 57.1257 71.7097 50.4207C71.7097 43.7157 76.8747 38.2629 83.2258 38.2629C89.577 38.2629 94.742 43.7157 94.742 50.4207Z" fill="#414141"/>
<path d="M81.3065 42.3153V51.2595L87.6269 57.9321L90.3408 55.0669L85.1452 49.5817V42.3153H81.3065Z" fill="#414141"/>
</svg>
