<svg width="38" height="38" viewBox="0 0 38 38" fill="none" xmlns="http://www.w3.org/2000/svg">
<path d="M18.2365 22.947C18.2365 24.2606 18.6237 25.533 19.3568 26.626L24.9232 34.9266L30.4896 26.626C31.2227 25.533 31.6099 24.2606 31.6099 22.947C31.6099 19.2892 28.6161 16.3135 24.9104 16.3135C21.2303 16.3135 18.2365 19.2892 18.2365 22.947ZM30.3941 22.947C30.3941 24.0213 30.0774 25.0617 29.4781 25.956L24.9232 32.7478L20.3683 25.956C19.7689 25.0617 19.4522 24.0213 19.4522 22.947C19.4522 19.9556 21.9008 17.5219 24.9359 17.5219C27.9456 17.5219 30.3941 19.9556 30.3941 22.947Z" fill="#414141"/>
<path d="M29.1402 30.3993L29.0295 31.6029C34.2896 32.0802 36.4731 33.2934 36.4731 33.8372C36.4731 34.6462 32.4422 36.2322 25.0546 36.2522H24.7938C17.4044 36.2322 13.3735 34.6462 13.3735 33.8372C13.3735 33.2934 15.557 32.0802 20.817 31.6035L20.7064 30.3999C18.1363 30.6331 12.1577 31.4343 12.1577 33.8372C12.1577 36.3035 18.7058 37.4443 24.792 37.4606H25.0558C31.1407 37.4443 37.6889 36.3035 37.6889 33.8372C37.6889 31.4343 31.7103 30.6331 29.1402 30.3993Z" fill="#414141"/>
<path d="M24.9233 27.1891C27.2703 27.1891 29.1791 25.2913 29.1791 22.9591C29.1791 20.6269 27.2703 18.7285 24.9233 18.7285C22.5762 18.7285 20.6675 20.6263 20.6675 22.9585C20.6675 25.2907 22.5762 27.1891 24.9233 27.1891ZM24.9233 19.9369C26.5998 19.9369 27.9633 21.2927 27.9633 22.9585C27.9633 24.6243 26.5998 25.9807 24.9233 25.9807C23.2467 25.9807 21.8832 24.6249 21.8832 22.9591C21.8832 21.2933 23.2467 19.9369 24.9233 19.9369Z" fill="#414141"/>
<path d="M21.8838 0H4.86304V3.62523H21.8838V0ZM20.668 2.41682H6.07881V1.20841H20.668V2.41682Z" fill="#414141"/>
<path d="M20.668 4.83362H19.4523V16.9177H20.668V10.2715H24.3153V9.06304H20.668V7.85464H25.5311V15.1051H26.7469V6.64623H20.668V4.83362Z" fill="#414141"/>
<path d="M17.0208 24.7723V24.1681V18.1261H18.2365V16.9177H8.51039V18.1261H9.72616V24.1681H7.29462V4.83362H6.07885V6.64623H0V25.3765H17.0208V24.7723ZM6.07885 9.06304H2.43154V10.2714H6.07885V24.1681H1.21577V7.85464H6.07885V9.06304ZM15.805 24.1681H10.9419V18.1261H15.805V24.1681Z" fill="#414141"/>
<path d="M8.51038 9.66726C8.51038 12.3324 10.6921 14.5009 13.3735 14.5009C16.0548 14.5009 18.2365 12.3324 18.2365 9.66726C18.2365 7.00211 16.0548 4.83362 13.3735 4.83362C10.6921 4.83362 8.51038 7.00211 8.51038 9.66726ZM17.0208 9.66726C17.0208 11.6666 15.3849 13.2925 13.3735 13.2925C11.362 13.2925 9.72615 11.6666 9.72615 9.66726C9.72615 7.66794 11.362 6.04203 13.3735 6.04203C15.3849 6.04203 17.0208 7.66794 17.0208 9.66726Z" fill="#414141"/>
<path d="M12.7656 7.25049V9.91746L14.7674 11.9071L15.6269 11.0528L13.9814 9.41718V7.25049H12.7656Z" fill="#414141"/>
</svg>
